<svg width="24" height="24" viewBox="0 0 24 24" fill="none" xmlns="http://www.w3.org/2000/svg">
<circle cx="12" cy="12" r="10" fill="#FEF6E8"/>
<path d="M15.5449 11.1444C15.5449 11.2792 15.5394 11.4136 15.5285 11.5469C15.4872 12.0419 15.3693 12.5245 15.1693 12.9787C15.0792 12.7568 14.9723 12.5404 14.8494 12.33C14.7713 12.1966 14.6872 12.0658 14.5966 11.9379C14.5743 11.9066 14.5519 11.8752 14.529 11.8444C14.4738 11.7693 14.4166 11.6956 14.3573 11.623C14.3101 11.5648 14.2613 11.5071 14.2111 11.4499C14.1559 11.3867 14.0991 11.3245 14.0404 11.2633C13.9862 11.2061 13.9305 11.1499 13.8733 11.0947C13.828 11.0504 13.7817 11.0066 13.735 10.9638C13.631 10.8678 13.523 10.7748 13.4116 10.6847C13.3932 10.6698 13.3748 10.6549 13.3559 10.6399C13.2449 10.5509 13.13 10.4653 13.0116 10.3822C12.929 10.3235 12.8444 10.2668 12.7578 10.2116C12.7509 10.2066 12.7434 10.2016 12.736 10.1971C12.6708 10.1549 12.6051 10.1141 12.5379 10.0743C12.4897 10.0449 12.4409 10.0165 12.3917 9.98818C12.3275 9.89017 12.2638 9.79017 12.2006 9.68818C12.0384 9.42798 11.8767 9.15684 11.718 8.87425C11.5613 8.59565 11.4076 8.30659 11.2568 8.00659C11.117 7.72749 10.9797 7.43843 10.8469 7.13992C10.7265 6.87027 10.6096 6.59167 10.4966 6.30609C10.4459 6.17624 10.3957 6.0454 10.3459 5.91256C10.2872 5.75336 10.2305 5.59565 10.1763 5.43893C10.0817 5.16381 9.99466 4.89216 9.91406 4.625C10.7106 4.826 11.5066 5.16878 12.2583 5.65833C13.4404 6.42798 14.3365 7.4444 14.8912 8.54241C14.8927 8.5449 14.8942 8.54739 14.8952 8.54988C14.9454 8.64938 14.9932 8.74988 15.0374 8.85137C15.0638 8.91057 15.0892 8.96978 15.1131 9.02997C15.1489 9.11604 15.1817 9.20261 15.2121 9.28968C15.2598 9.42251 15.3026 9.55634 15.3394 9.69117C15.3723 9.80709 15.4011 9.924 15.426 10.0409C15.4514 10.1598 15.4728 10.2792 15.4902 10.3981C15.5101 10.5345 15.5245 10.6703 15.533 10.8051C15.5409 10.9185 15.5449 11.0315 15.5449 11.1444Z" fill="url(#paint0_linear_2313_27449)"/>
<path d="M9.91693 9.69531C10.4597 9.69531 10.9896 9.73561 11.5015 9.81273C9.83583 9.85899 8.30101 10.2869 7.04976 10.9824C6.74529 10.8003 6.43832 10.6082 6.13086 10.4068C7.25673 9.95302 8.54678 9.69531 9.91693 9.69531Z" fill="url(#paint1_linear_2313_27449)"/>
<path d="M12.1581 9.81464C12.1536 9.81315 12.1491 9.81116 12.1446 9.81016C11.0864 9.4221 9.89538 9.20469 8.63617 9.20469C7.37697 9.20469 6.25309 9.41016 5.21727 9.77783C4.93568 9.57534 4.66404 9.37136 4.40234 9.16688C5.35657 8.86589 6.40583 8.69922 7.50732 8.69922C9.23916 8.69922 10.8421 9.11066 12.1491 9.81016C12.1521 9.81166 12.1551 9.81315 12.1581 9.81464Z" fill="url(#paint2_linear_2313_27449)"/>
<path opacity="0.17" d="M15.4755 14.6374C15.4755 16.0787 14.7859 17.4006 13.6397 18.4289C13.2158 17.7035 12.9805 16.9025 12.9805 16.0608C12.9805 15.717 13.0198 15.3802 13.0949 15.0523C13.7849 14.7011 14.3745 14.1916 14.8048 13.5304C14.9332 13.3334 15.0437 13.1284 15.1362 12.918C15.3566 13.4622 15.4755 14.0394 15.4755 14.6374Z" fill="black"/>
<path opacity="0.17" d="M15.4755 14.6374C15.4755 16.0787 14.7859 17.4006 13.6397 18.4289C13.2158 17.7035 12.9805 16.9025 12.9805 16.0608C12.9805 15.717 13.0198 15.3802 13.0949 15.0523C13.7849 14.7011 14.3745 14.1916 14.8048 13.5304C14.9332 13.3334 15.0437 13.1284 15.1362 12.918C15.3566 13.4622 15.4755 14.0394 15.4755 14.6374Z" fill="black"/>
<path opacity="0.17" d="M12.9086 10.1345C12.9021 10.1315 12.8951 10.128 12.8887 10.125C12.8986 10.1275 12.9081 10.1305 12.918 10.134C12.915 10.1335 12.9116 10.1335 12.9086 10.1345Z" fill="black"/>
<path opacity="0.17" d="M15.4755 14.6374C15.4755 16.0787 14.7859 17.4006 13.6397 18.4289C13.2158 17.7035 12.9805 16.9025 12.9805 16.0608C12.9805 15.717 13.0198 15.3802 13.0949 15.0523C13.7849 14.7011 14.3745 14.1916 14.8048 13.5304C14.9332 13.3334 15.0437 13.1284 15.1362 12.918C15.3566 13.4622 15.4755 14.0394 15.4755 14.6374Z" fill="black"/>
<path opacity="0.17" d="M12.9086 10.1345C12.9021 10.1315 12.8951 10.128 12.8887 10.125C12.8986 10.1275 12.9081 10.1305 12.918 10.134C12.915 10.1335 12.9116 10.1335 12.9086 10.1345Z" fill="black"/>
<path opacity="0.17" d="M12.1599 9.81735C12.1554 9.81586 12.151 9.81387 12.1465 9.81287C12.148 9.81238 12.1495 9.81238 12.151 9.81287C12.1539 9.81437 12.1569 9.81586 12.1599 9.81735Z" fill="black"/>
<path opacity="0.17" d="M15.4755 14.6374C15.4755 16.0787 14.7859 17.4006 13.6397 18.4289C13.2158 17.7035 12.9805 16.9025 12.9805 16.0608C12.9805 15.717 13.0198 15.3802 13.0949 15.0523C13.7849 14.7011 14.3745 14.1916 14.8048 13.5304C14.9332 13.3334 15.0437 13.1284 15.1362 12.918C15.3566 13.4622 15.4755 14.0394 15.4755 14.6374Z" fill="black"/>
<path opacity="0.17" d="M15.4755 14.6374C15.4755 16.0787 14.7859 17.4006 13.6397 18.4289C13.2158 17.7035 12.9805 16.9025 12.9805 16.0608C12.9805 15.717 13.0198 15.3802 13.0949 15.0523C13.7849 14.7011 14.3745 14.1916 14.8048 13.5304C14.9332 13.3334 15.0437 13.1284 15.1362 12.918C15.3566 13.4622 15.4755 14.0394 15.4755 14.6374Z" fill="black"/>
<path opacity="0.17" d="M15.4755 14.6374C15.4755 16.0787 14.7859 17.4006 13.6397 18.4289C13.2158 17.7035 12.9805 16.9025 12.9805 16.0608C12.9805 15.717 13.0198 15.3802 13.0949 15.0523C13.7849 14.7011 14.3745 14.1916 14.8048 13.5304C14.9332 13.3334 15.0437 13.1284 15.1362 12.918C15.3566 13.4622 15.4755 14.0394 15.4755 14.6374Z" fill="black"/>
<path opacity="0.17" d="M15.4755 14.6374C15.4755 16.0787 14.7859 17.4006 13.6397 18.4289C13.2158 17.7035 12.9805 16.9025 12.9805 16.0608C12.9805 15.717 13.0198 15.3802 13.0949 15.0523C13.7849 14.7011 14.3745 14.1916 14.8048 13.5304C14.9332 13.3334 15.0437 13.1284 15.1362 12.918C15.3566 13.4622 15.4755 14.0394 15.4755 14.6374Z" fill="black"/>
<path opacity="0.17" d="M15.4755 14.6374C15.4755 16.0787 14.7859 17.4006 13.6397 18.4289C13.2158 17.7035 12.9805 16.9025 12.9805 16.0608C12.9805 15.717 13.0198 15.3802 13.0949 15.0523C13.7849 14.7011 14.3745 14.1916 14.8048 13.5304C14.9332 13.3334 15.0437 13.1284 15.1362 12.918C15.3566 13.4622 15.4755 14.0394 15.4755 14.6374Z" fill="black"/>
<path opacity="0.17" d="M15.4755 14.6374C15.4755 16.0787 14.7859 17.4006 13.6397 18.4289C13.2158 17.7035 12.9805 16.9025 12.9805 16.0608C12.9805 15.717 13.0198 15.3802 13.0949 15.0523C13.7849 14.7011 14.3745 14.1916 14.8048 13.5304C14.9332 13.3334 15.0437 13.1284 15.1362 12.918C15.3566 13.4622 15.4755 14.0394 15.4755 14.6374Z" fill="black"/>
<path opacity="0.17" d="M15.4755 14.6374C15.4755 16.0787 14.7859 17.4006 13.6397 18.4289C13.2158 17.7035 12.9805 16.9025 12.9805 16.0608C12.9805 15.717 13.0198 15.3802 13.0949 15.0523C13.7849 14.7011 14.3745 14.1916 14.8048 13.5304C14.9332 13.3334 15.0437 13.1284 15.1362 12.918C15.3566 13.4622 15.4755 14.0394 15.4755 14.6374Z" fill="black"/>
<path opacity="0.17" d="M15.4755 14.6374C15.4755 16.0787 14.7859 17.4006 13.6397 18.4289C13.2158 17.7035 12.9805 16.9025 12.9805 16.0608C12.9805 15.717 13.0198 15.3802 13.0949 15.0523C13.7849 14.7011 14.3745 14.1916 14.8048 13.5304C14.9332 13.3334 15.0437 13.1284 15.1362 12.918C15.3566 13.4622 15.4755 14.0394 15.4755 14.6374Z" fill="black"/>
<path opacity="0.17" d="M14.2987 19.3218C14.1574 19.4283 14.0106 19.5308 13.8584 19.6283C13.722 19.7168 13.5817 19.8014 13.4375 19.8825C13.2509 19.9875 13.0579 20.0865 12.8594 20.1785C12.6673 20.2681 12.4703 20.3517 12.2678 20.4288C12.239 20.4397 12.2096 20.4507 12.1802 20.4611C12.1788 20.4616 12.1778 20.4621 12.1763 20.4626C11.9773 20.5362 11.7743 20.6039 11.5668 20.6651C11.2106 20.7696 10.8414 20.8561 10.4623 20.9218C9.97875 21.0059 9.47875 21.0576 8.96582 21.072C8.89716 21.0745 8.82851 21.076 8.75935 21.0765H8.75388C8.71657 21.0775 8.67925 21.0775 8.64194 21.0775C8.52851 21.0775 8.41557 21.0755 8.30313 21.0716C7.37577 21.0432 6.4892 20.8964 5.6703 20.6507C5.07129 20.4716 4.50861 20.2392 3.99219 19.9621C4.29169 20.0725 4.60164 20.1691 4.92104 20.2507C5.0305 20.279 5.14144 20.3054 5.25338 20.3293C5.25388 20.3293 5.25388 20.3298 5.25438 20.3298C5.86532 20.4646 6.50711 20.5457 7.1698 20.5661C7.28373 20.5701 7.39816 20.5721 7.51308 20.5721C7.6897 20.5721 7.86482 20.5676 8.03846 20.5586C8.56134 20.5337 9.0703 20.4711 9.56084 20.3735C9.77627 20.3313 9.98771 20.2825 10.1952 20.2268H10.1957C10.3738 20.1795 10.5489 20.1273 10.7205 20.0711C10.9763 19.9875 11.2245 19.8939 11.4648 19.7919C11.6817 19.6994 11.8922 19.5994 12.0957 19.4924C12.3101 19.38 12.5166 19.2601 12.7146 19.1327C12.8718 19.0322 13.023 18.9273 13.1688 18.8173C13.336 18.692 13.4952 18.5616 13.6469 18.4258C13.826 18.7332 14.0399 19.0268 14.2832 19.3039C14.2867 19.3079 14.2902 19.3119 14.2932 19.3158C14.2952 19.3178 14.2967 19.3198 14.2987 19.3218Z" fill="#000143"/>
<path opacity="0.17" d="M14.2975 19.3218C14.1562 19.4283 14.0095 19.5308 13.8572 19.6283C13.7209 19.7168 13.5806 19.8014 13.4363 19.8825C13.2498 19.9875 13.0567 20.0865 12.8582 20.1785C12.6662 20.2681 12.4692 20.3517 12.2667 20.4288C12.2378 20.4397 12.2085 20.4507 12.1791 20.4611C12.1776 20.4616 12.1766 20.4621 12.1751 20.4626C11.9761 20.5362 11.7732 20.6039 11.5657 20.6651C11.2095 20.7696 10.8403 20.8561 10.4612 20.9218C9.97763 21.0059 9.47763 21.0576 8.9647 21.072C8.89604 21.0745 8.82738 21.076 8.75823 21.0765H8.75276C8.71544 21.0775 8.67813 21.0775 8.64082 21.0775C8.52738 21.0775 8.41445 21.0755 8.30201 21.0716C7.37465 21.0432 6.48808 20.8964 5.66918 20.6507C5.40848 20.5283 5.15873 20.3949 4.91992 20.2507C5.02937 20.279 5.14032 20.3054 5.25226 20.3293C5.25276 20.3293 5.25276 20.3298 5.25326 20.3298C5.8642 20.4646 6.50599 20.5457 7.16868 20.5661C7.28261 20.5701 7.39704 20.5721 7.51196 20.5721C7.68858 20.5721 7.8637 20.5676 8.03734 20.5586C8.56022 20.5337 9.06918 20.4711 9.55972 20.3735C9.77515 20.3313 9.98659 20.2825 10.1941 20.2268H10.1945C10.3727 20.1795 10.5478 20.1273 10.7194 20.0711C10.9751 19.9875 11.2234 19.8939 11.4637 19.7919C11.6806 19.6994 11.8911 19.5994 12.0945 19.4924C12.309 19.38 12.5154 19.2601 12.7135 19.1327C12.8707 19.0322 13.0219 18.9273 13.1677 18.8173C13.3348 18.692 13.4941 18.5616 13.6458 18.4258C13.8249 18.7332 14.0388 19.0268 14.2821 19.3039C14.2856 19.3079 14.2891 19.3119 14.2921 19.3158C14.2941 19.3178 14.2955 19.3198 14.2975 19.3218Z" fill="#000143"/>
<path opacity="0.17" d="M14.2949 19.3218C14.1536 19.4283 14.0068 19.5308 13.8546 19.6283C13.7183 19.7168 13.578 19.8014 13.4337 19.8825C13.2471 19.9875 13.0541 20.0865 12.8556 20.1785C12.6635 20.2681 12.4665 20.3517 12.264 20.4288C12.2352 20.4397 12.2058 20.4507 12.1765 20.4611C12.175 20.4616 12.174 20.4621 12.1725 20.4626C11.9735 20.5362 11.7705 20.6039 11.563 20.6651C11.2068 20.7696 10.8377 20.8561 10.4586 20.9218C9.97497 21.0059 9.47497 21.0576 8.96204 21.072C8.89338 21.0745 8.82472 21.076 8.75557 21.0765H8.7501C8.71278 21.0775 8.67547 21.0775 8.63815 21.0775C8.52472 21.0775 8.41179 21.0755 8.29935 21.0716C8.28691 21.0671 8.27398 21.0621 8.26154 21.0571H8.26104C7.87746 20.9153 7.51129 20.7512 7.16602 20.5661C7.27995 20.5701 7.39437 20.5721 7.5093 20.5721C7.68592 20.5721 7.86104 20.5676 8.03467 20.5586C8.55756 20.5337 9.06651 20.4711 9.55706 20.3735C9.77248 20.3313 9.98393 20.2825 10.1914 20.2268H10.1919C10.37 20.1795 10.5451 20.1273 10.7168 20.0711C10.9725 19.9875 11.2207 19.8939 11.461 19.7919C11.678 19.6994 11.8884 19.5994 12.0919 19.4924C12.3063 19.38 12.5128 19.2601 12.7108 19.1327C12.868 19.0322 13.0192 18.9273 13.165 18.8173C13.3322 18.692 13.4914 18.5616 13.6431 18.4258C13.8222 18.7332 14.0362 19.0268 14.2794 19.3039C14.2829 19.3079 14.2864 19.3119 14.2894 19.3158C14.2914 19.3178 14.2929 19.3198 14.2949 19.3218Z" fill="#000143"/>
<path opacity="0.17" d="M14.2954 19.3218C14.1541 19.4283 14.0073 19.5308 13.8551 19.6283C13.7187 19.7168 13.5784 19.8014 13.4342 19.8825C13.2476 19.9875 13.0546 20.0865 12.8561 20.1785C12.664 20.2681 12.467 20.3517 12.2645 20.4288C12.2357 20.4397 12.2063 20.4507 12.1769 20.4611C12.1755 20.4616 12.1745 20.4621 12.173 20.4626C11.974 20.5362 11.771 20.6039 11.5635 20.6651C11.2073 20.7696 10.8381 20.8561 10.459 20.9218C9.97545 21.0059 9.47545 21.0576 8.96252 21.0721C8.63665 20.9178 8.3267 20.7462 8.03516 20.5586C8.55804 20.5337 9.067 20.4711 9.55754 20.3735C9.77297 20.3313 9.98441 20.2825 10.1919 20.2268H10.1924C10.3705 20.1795 10.5456 20.1273 10.7172 20.0711C10.973 19.9875 11.2212 19.8939 11.4615 19.7919C11.6784 19.6994 11.8889 19.5994 12.0924 19.4924C12.3068 19.38 12.5133 19.2601 12.7113 19.1327C12.8685 19.0322 13.0197 18.9273 13.1655 18.8173C13.3327 18.692 13.4919 18.5616 13.6436 18.4258C13.8227 18.7332 14.0366 19.0268 14.2799 19.3039C14.2834 19.3079 14.2869 19.3119 14.2899 19.3158C14.2919 19.3178 14.2934 19.3198 14.2954 19.3218Z" fill="#000143"/>
<path opacity="0.17" d="M14.2966 19.3218C14.1553 19.4283 14.0085 19.5308 13.8563 19.6283C13.7199 19.7169 13.5796 19.8014 13.4353 19.8825C13.2488 19.9875 13.0557 20.0865 12.8572 20.1786C12.6652 20.2681 12.4681 20.3517 12.2656 20.4288C12.2368 20.4398 12.2074 20.4507 12.1781 20.4612C12.1766 20.4617 12.1756 20.4622 12.1741 20.4627C11.9751 20.5363 11.7721 20.604 11.5646 20.6652C11.2084 20.7696 10.8392 20.8562 10.4601 20.9219C10.1417 20.7557 9.8402 20.5726 9.55859 20.3736C9.77402 20.3313 9.98547 20.2826 10.1929 20.2268H10.1934C10.3716 20.1796 10.5467 20.1273 10.7183 20.0711C10.9741 19.9875 11.2223 19.894 11.4626 19.792C11.6796 19.6995 11.89 19.5995 12.0935 19.4925C12.3079 19.38 12.5144 19.2601 12.7124 19.1328C12.8697 19.0323 13.0209 18.9273 13.1667 18.8173C13.3338 18.692 13.4931 18.5616 13.6448 18.4258C13.8239 18.7333 14.0378 19.0268 14.2811 19.3039C14.2846 19.3079 14.2881 19.3119 14.2911 19.3159C14.2931 19.3179 14.2946 19.3198 14.2966 19.3218Z" fill="#000143"/>
<path opacity="0.17" d="M14.2989 19.3218C14.1576 19.4283 14.0109 19.5308 13.8586 19.6283C13.7223 19.7169 13.582 19.8014 13.4377 19.8825C13.2511 19.9875 13.0581 20.0865 12.8596 20.1786C12.6675 20.2681 12.4705 20.3517 12.268 20.4288C12.2392 20.4398 12.2098 20.4507 12.1805 20.4612C12.179 20.4617 12.178 20.4622 12.1765 20.4627C11.9775 20.5363 11.7745 20.604 11.567 20.6652C11.3337 20.5239 11.1113 20.3731 10.9008 20.2124C10.8396 20.1661 10.7794 20.1189 10.7207 20.0711C10.9764 19.9875 11.2247 19.894 11.465 19.792C11.6819 19.6995 11.8924 19.5995 12.0959 19.4925C12.3103 19.38 12.5168 19.2601 12.7148 19.1328C12.872 19.0323 13.0233 18.9273 13.169 18.8173C13.3362 18.692 13.4954 18.5616 13.6472 18.4258C13.8263 18.7333 14.0402 19.0268 14.2835 19.3039C14.287 19.3079 14.2905 19.3119 14.2935 19.3159C14.2955 19.3179 14.2969 19.3198 14.2989 19.3218Z" fill="#000143"/>
<path opacity="0.17" d="M14.2967 19.3218C14.1554 19.4283 14.0087 19.5308 13.8564 19.6283C13.7201 19.7168 13.5798 19.8014 13.4355 19.8825C13.249 19.9875 13.0559 20.0865 12.8574 20.1785C12.6654 20.2681 12.4684 20.3517 12.2659 20.4288C12.2654 20.4283 12.2644 20.4278 12.2639 20.4273C12.1141 20.3248 11.9699 20.2183 11.8311 20.1079C11.7037 20.0059 11.5808 19.9004 11.4629 19.792C11.6798 19.6994 11.8903 19.5994 12.0937 19.4924C12.3082 19.38 12.5146 19.2601 12.7126 19.1327C12.8699 19.0322 13.0211 18.9273 13.1669 18.8173C13.334 18.692 13.4932 18.5616 13.645 18.4258C13.8241 18.7332 14.038 19.0268 14.2813 19.3039C14.2848 19.3079 14.2883 19.3119 14.2912 19.3158C14.2932 19.3178 14.2947 19.3198 14.2967 19.3218Z" fill="#000143"/>
<path opacity="0.17" d="M14.2968 19.3218C14.1555 19.4283 14.0087 19.5308 13.8565 19.6283C13.7202 19.7169 13.5799 19.8014 13.4356 19.8825C13.249 19.9875 13.056 20.0865 12.8575 20.1786C12.854 20.1761 12.8505 20.1731 12.847 20.1701C12.7545 20.099 12.6649 20.0253 12.5773 19.9502C12.4062 19.8039 12.245 19.6512 12.0938 19.4925C12.3082 19.38 12.5147 19.2601 12.7127 19.1328C12.8699 19.0323 13.0211 18.9273 13.1669 18.8173C13.3341 18.692 13.4933 18.5616 13.645 18.4258C13.8242 18.7333 14.0381 19.0268 14.2814 19.3039C14.2849 19.3079 14.2884 19.3119 14.2913 19.3159C14.2933 19.3179 14.2948 19.3198 14.2968 19.3218Z" fill="#000143"/>
<path opacity="0.17" d="M14.297 19.3218C14.1557 19.4283 14.0089 19.5308 13.8567 19.6283C13.7204 19.7168 13.5801 19.8014 13.4358 19.8825C13.4303 19.8775 13.4243 19.8725 13.4189 19.8676C13.3716 19.8253 13.3248 19.7825 13.2791 19.7392C13.0741 19.5467 12.885 19.3442 12.7129 19.1327C12.8701 19.0322 13.0213 18.9273 13.1671 18.8173C13.3343 18.692 13.4935 18.5616 13.6452 18.4258C13.8243 18.7332 14.0383 19.0268 14.2815 19.3039C14.285 19.3079 14.2885 19.3119 14.2915 19.3158C14.2935 19.3178 14.295 19.3198 14.297 19.3218Z" fill="#000143"/>
<path d="M15.4755 14.6374C15.4755 16.0787 14.7859 17.4006 13.6397 18.4289C13.2158 17.7035 12.9805 16.9025 12.9805 16.0608C12.9805 15.717 13.0198 15.3802 13.0949 15.0523C13.7849 14.7011 14.3745 14.1916 14.8048 13.5304C14.9332 13.3334 15.0437 13.1284 15.1362 12.918C15.3566 13.4622 15.4755 14.0394 15.4755 14.6374Z" fill="#000143"/>
<path d="M18.0153 6.8623C18.0004 7.03593 17.9949 7.19215 17.9944 7.32747C18.1944 7.4409 18.3651 7.60011 18.4929 7.79066C18.6049 7.95782 18.6835 8.14886 18.7198 8.35533C19.0611 9.29762 19.2467 10.3145 19.2467 11.3742C19.2467 14.8643 17.2327 17.8827 14.3049 19.3285C14.3019 19.3245 14.2984 19.3205 14.2949 19.3165C16.5387 17.6618 17.9944 14.9976 17.9944 11.9931C17.9944 11.3081 17.9188 10.6409 17.775 9.99911C17.6168 10.0573 17.4452 10.0887 17.2671 10.0887C16.4526 10.0887 15.7924 9.42747 15.7924 8.61205C15.7924 8.00906 16.1526 7.49115 16.6695 7.2623C16.8521 7.18071 17.0546 7.13543 17.2671 7.13543C17.3427 6.86429 17.4462 6.54986 17.5894 6.20956C17.7307 5.87324 17.9093 5.51056 18.1387 5.13742C18.7606 4.12349 19.4914 3.45036 20.0079 3.04688C19.6093 3.38021 18.881 4.0817 18.4143 5.21603C18.1606 5.83493 18.0551 6.40707 18.0158 6.8623H18.0153Z" fill="#000143"/>
<path d="M15.5132 11.0844C15.5132 11.2192 15.5077 11.3535 15.4968 11.4869C15.4555 11.9819 15.3376 12.4645 15.1376 12.9187C15.0475 12.6968 14.9406 12.4804 14.8177 12.27C14.7396 12.1366 14.6555 12.0058 14.5649 11.8779C14.5425 11.8466 14.5202 11.8152 14.4973 11.7844C14.442 11.7093 14.3848 11.6356 14.3256 11.563C14.2784 11.5048 14.2296 11.4471 14.1794 11.3899C14.1241 11.3267 14.0674 11.2645 14.0087 11.2033C13.9545 11.1461 13.8988 11.0899 13.8415 11.0346C13.7963 10.9903 13.75 10.9466 13.7032 10.9038C13.5993 10.8078 13.4913 10.7147 13.3799 10.6247C13.3614 10.6098 13.343 10.5948 13.3241 10.5799C13.2132 10.4908 13.0983 10.4053 12.9799 10.3222C12.8973 10.2635 12.8127 10.2068 12.7261 10.1515C12.7192 10.1466 12.7117 10.1416 12.7042 10.1371C12.6391 10.0948 12.5734 10.054 12.5062 10.0142C12.458 9.98488 12.4092 9.95652 12.36 9.92816C12.2958 9.83015 12.2321 9.73015 12.1689 9.62816C12.0067 9.36796 11.845 9.09682 11.6863 8.81423C11.5296 8.53562 11.3759 8.24657 11.2251 7.94657C11.0853 7.66746 10.948 7.37841 10.8152 7.0799C10.6948 6.81025 10.5779 6.53164 10.4649 6.24607C10.4142 6.11622 10.3639 5.98537 10.3142 5.85254C10.2555 5.69333 10.1988 5.53562 10.1445 5.37891C11.0286 5.56697 11.9187 5.93015 12.754 6.47393C13.6132 7.03314 14.3211 7.72318 14.8565 8.4804C14.859 8.48289 14.8614 8.48637 14.8634 8.48985C14.9137 8.58935 14.9614 8.68985 15.0057 8.79134C15.0321 8.85055 15.0575 8.90975 15.0813 8.96995C15.1172 9.05602 15.15 9.14259 15.1804 9.22965C15.2281 9.36249 15.2709 9.49632 15.3077 9.63114C15.3406 9.74707 15.3694 9.86398 15.3943 9.9809C15.4197 10.0998 15.441 10.2192 15.4585 10.3381C15.4784 10.4744 15.4928 10.6102 15.5012 10.7451C15.5092 10.8585 15.5132 10.9714 15.5132 11.0844Z" fill="url(#paint3_linear_2313_27449)"/>
<path d="M15.5151 11.0883C15.5151 11.2231 15.5096 11.3575 15.4986 11.4908C15.4573 11.9858 15.3394 12.4684 15.1394 12.9226C15.0494 12.7007 14.9424 12.4843 14.8195 12.2739C14.7414 12.1405 14.6573 12.0097 14.5668 11.8818C14.5444 11.8505 14.522 11.8192 14.4991 11.7883C14.4439 11.7132 14.3867 11.6396 14.3275 11.5669C14.2802 11.5087 14.2315 11.451 14.1812 11.3938C14.126 11.3306 14.0693 11.2684 14.0106 11.2072C13.9563 11.15 13.9006 11.0938 13.8434 11.0386C13.7981 10.9943 13.7519 10.9505 13.7051 10.9077C13.6011 10.8117 13.4932 10.7187 13.3817 10.6286C13.3633 10.6137 13.3449 10.5988 13.326 10.5838C13.2151 10.4948 13.1001 10.4092 12.9817 10.3261C12.8991 10.2674 12.8146 10.2107 12.728 10.1555C12.721 10.1505 12.7136 10.1455 12.7061 10.141C12.6409 10.0988 12.5753 10.058 12.5081 10.0182C12.4598 9.98881 12.4111 9.96045 12.3618 9.93209C12.2976 9.83408 12.234 9.73408 12.1708 9.63209C12.0086 9.37189 11.8469 9.10075 11.6882 8.81816C11.5315 8.53955 11.3777 8.2505 11.227 7.9505C11.0872 7.67139 10.9499 7.38234 10.817 7.08383C10.6966 6.81418 10.5797 6.53557 10.4668 6.25C11.4539 6.41468 12.4583 6.79726 13.3932 7.40572C13.7638 7.64701 14.1061 7.91219 14.418 8.19677C14.628 8.38781 14.825 8.58781 15.0076 8.79527C15.034 8.85448 15.0593 8.91368 15.0832 8.97388C15.119 9.05995 15.1519 9.14652 15.1822 9.23358C15.23 9.36642 15.2728 9.50025 15.3096 9.63507C15.3424 9.75099 15.3713 9.86791 15.3962 9.98483C15.4215 10.1037 15.4429 10.2231 15.4603 10.342C15.4802 10.4784 15.4947 10.6142 15.5031 10.749C15.5111 10.8624 15.5151 10.9754 15.5151 11.0883Z" fill="url(#paint4_linear_2313_27449)"/>
<path d="M15.5164 11.0826C15.5164 11.2174 15.5109 11.3518 15.5 11.4851C15.4587 11.9801 15.3407 12.4627 15.1407 12.9169C15.0507 12.695 14.9437 12.4786 14.8208 12.2682C14.7427 12.1348 14.6587 12.004 14.5681 11.8761C14.5457 11.8448 14.5233 11.8134 14.5004 11.7826C14.4452 11.7075 14.388 11.6338 14.3288 11.5612C14.2815 11.503 14.2328 11.4453 14.1825 11.3881C14.1273 11.3249 14.0706 11.2627 14.0119 11.2015C13.9577 11.1443 13.9019 11.0881 13.8447 11.0329C13.7995 10.9886 13.7532 10.9448 13.7064 10.902C13.6024 10.806 13.4945 10.713 13.383 10.6229C13.3646 10.608 13.3462 10.5931 13.3273 10.5781C13.2164 10.4891 13.1014 10.4035 12.983 10.3204C12.9004 10.2617 12.8159 10.205 12.7293 10.1498C12.7223 10.1448 12.7149 10.1398 12.7074 10.1353C12.6422 10.0931 12.5766 10.0523 12.5094 10.0125C12.4611 9.9831 12.4124 9.95474 12.3631 9.92638C12.299 9.82837 12.2353 9.72837 12.1721 9.62638C12.0099 9.36618 11.8482 9.09504 11.6895 8.81245C11.5328 8.53385 11.3791 8.24479 11.2283 7.94479C11.0885 7.66569 10.9512 7.37663 10.8184 7.07812C12.0069 7.11992 13.2606 7.48509 14.4194 8.19106C14.491 8.23385 14.5611 8.27813 14.6313 8.3239C14.7089 8.37415 14.785 8.42589 14.8597 8.47862C14.8611 8.47912 14.8621 8.47962 14.8626 8.48061C14.8641 8.4831 14.8656 8.48559 14.8666 8.48808C14.9169 8.58758 14.9646 8.68808 15.0089 8.78957C15.0353 8.84877 15.0606 8.90798 15.0845 8.96817C15.1203 9.05424 15.1532 9.14081 15.1835 9.22788C15.2313 9.36071 15.2741 9.49454 15.3109 9.62937C15.3437 9.74529 15.3726 9.8622 15.3975 9.97912C15.4228 10.098 15.4442 10.2174 15.4616 10.3363C15.4815 10.4727 15.496 10.6085 15.5044 10.7433C15.5124 10.8567 15.5164 10.9697 15.5164 11.0826Z" fill="url(#paint5_linear_2313_27449)"/>
<path d="M15.5167 11.0858C15.5167 11.2206 15.5112 11.3549 15.5003 11.4883C15.459 11.9833 15.3411 12.4659 15.1411 12.9201C15.051 12.6983 14.9441 12.4818 14.8212 12.2714C14.7431 12.138 14.659 12.0072 14.5684 11.8793C14.546 11.848 14.5237 11.8166 14.5008 11.7858C14.4455 11.7107 14.3883 11.637 14.3291 11.5644C14.2819 11.5062 14.2331 11.4485 14.1828 11.3912C14.1276 11.3281 14.0709 11.2659 14.0122 11.2047C13.958 11.1475 13.9022 11.0912 13.845 11.036C13.7997 10.9917 13.7535 10.9479 13.7067 10.9052C13.6027 10.8091 13.4948 10.7161 13.3833 10.626C13.3649 10.6111 13.3465 10.5962 13.3276 10.5813C13.2166 10.4922 13.1017 10.4066 12.9833 10.3235C12.9007 10.2648 12.8161 10.2081 12.7296 10.1529C12.7226 10.1479 12.7151 10.1429 12.7077 10.1385C12.6425 10.0962 12.5768 10.0554 12.5097 10.0156C12.4614 9.98622 12.4126 9.95786 12.3634 9.9295C12.2992 9.83149 12.2355 9.73148 12.1723 9.62949C12.0101 9.36928 11.8484 9.09813 11.6897 8.81553C11.533 8.53692 11.3793 8.24785 11.2285 7.94784C12.4843 7.91252 13.8346 8.24686 15.0849 8.97126C15.1207 9.05733 15.1535 9.1439 15.1839 9.23097C15.2316 9.36381 15.2744 9.49764 15.3112 9.63248C15.3441 9.7484 15.3729 9.86532 15.3978 9.98224C15.4232 10.1011 15.4446 10.2206 15.462 10.3395C15.4819 10.4758 15.4963 10.6116 15.5048 10.7464C15.5127 10.8599 15.5167 10.9728 15.5167 11.0858Z" fill="url(#paint6_linear_2313_27449)"/>
<path d="M15.5145 11.092C15.5145 11.2268 15.509 11.3611 15.4981 11.4945C15.4568 11.9895 15.3389 12.4721 15.1389 12.9263C15.0488 12.7044 14.9418 12.488 14.8189 12.2776C14.7408 12.1442 14.6568 12.0134 14.5662 11.8855C14.5438 11.8542 14.5214 11.8228 14.4985 11.792C14.4433 11.7169 14.3861 11.6432 14.3269 11.5706C14.2796 11.5124 14.2309 11.4547 14.1806 11.3974C14.1254 11.3343 14.0687 11.2721 14.01 11.2109C13.9557 11.1536 13.9 11.0974 13.8428 11.0422C13.7975 10.9979 13.7513 10.9541 13.7045 10.9114C13.6005 10.8153 13.4925 10.7223 13.3811 10.6322C13.3627 10.6173 13.3443 10.6024 13.3254 10.5875C13.2144 10.4984 13.0995 10.4128 12.9811 10.3297C12.8985 10.271 12.8139 10.2143 12.7273 10.1591C12.7204 10.1541 12.7129 10.1491 12.7054 10.1447C12.6403 10.1024 12.5746 10.0616 12.5074 10.0218C12.4592 9.99242 12.4104 9.96406 12.3612 9.9357C12.297 9.83768 12.2333 9.73768 12.1701 9.63569C12.0079 9.37548 11.8462 9.10433 11.6875 8.82173C12.7885 8.65058 14.003 8.78441 15.1816 9.23717C15.2294 9.37001 15.2722 9.50384 15.309 9.63867C15.3419 9.7546 15.3707 9.87151 15.3956 9.98843C15.421 10.1073 15.4424 10.2268 15.4598 10.3457C15.4797 10.482 15.4941 10.6178 15.5026 10.7526C15.5105 10.8661 15.5145 10.979 15.5145 11.092Z" fill="url(#paint7_linear_2313_27449)"/>
<path d="M12.706 10.1394C12.6394 10.1424 12.5727 10.1463 12.5065 10.1508C10.813 10.2637 9.27221 10.7722 8.05132 11.5513C7.72047 11.3727 7.38564 11.1831 7.04883 10.9822C8.30007 10.2866 9.8349 9.85877 11.5006 9.8125C11.807 9.85877 12.107 9.91747 12.4001 9.98961C12.4359 9.99807 12.4722 10.007 12.508 10.0165C12.5752 10.0563 12.6409 10.0971 12.706 10.1394Z" fill="url(#paint8_linear_2313_27449)"/>
<path d="M12.5078 10.0155C12.472 10.006 12.4357 9.99708 12.3998 9.98862C12.1068 9.91648 11.8068 9.85778 11.5003 9.81151C10.9884 9.73439 10.4586 9.6941 9.91576 9.6941C8.54562 9.6941 7.25557 9.95181 6.1297 10.4055C5.99039 10.314 5.85059 10.2205 5.71079 10.1249C5.54363 10.0105 5.37945 9.89559 5.21875 9.78017C6.25457 9.4125 7.41427 9.20703 8.63766 9.20703C9.86104 9.20703 11.0879 9.42444 12.1461 9.8125C12.1506 9.8135 12.1551 9.81549 12.1595 9.81698C12.2277 9.8538 12.2949 9.89111 12.3615 9.92942C12.4108 9.95778 12.4595 9.98614 12.5078 10.0155Z" fill="url(#paint9_linear_2313_27449)"/>
<path opacity="0.17" d="M15.5163 11.0785C15.5163 11.2133 15.5108 11.3477 15.4998 11.481C15.4586 11.976 15.3406 12.4586 15.1406 12.9129C15.0506 12.691 14.9436 12.4746 14.8207 12.2641C14.7426 12.1308 14.6585 11.9999 14.568 11.8721C14.5456 11.8407 14.5232 11.8094 14.5003 11.7785C14.4451 11.7034 14.3879 11.6298 14.3287 11.5571C14.2814 11.4989 14.2326 11.4412 14.1824 11.384C14.1272 11.3208 14.0704 11.2586 14.0117 11.1974C13.9575 11.1402 13.9018 11.084 13.8446 11.0287C13.7993 10.9845 13.753 10.9407 13.7063 10.8979C13.6023 10.8019 13.4943 10.7088 13.3829 10.6188C13.3645 10.6039 13.346 10.5889 13.3271 10.574C13.2162 10.4849 13.1013 10.3994 12.9828 10.3163C12.9003 10.2576 12.8157 10.2009 12.7291 10.1456C12.7221 10.1407 12.7147 10.1357 12.7072 10.1312C12.642 10.0889 12.5764 10.0481 12.5092 10.0083C12.4609 9.97896 12.4122 9.9506 12.3629 9.92224C12.2987 9.82423 12.2351 9.72422 12.1719 9.62223C13.1391 9.3665 14.2237 9.36352 15.3108 9.62522C15.3436 9.74114 15.3725 9.85806 15.3974 9.97498C15.4227 10.0939 15.4441 10.2133 15.4615 10.3322C15.4814 10.4685 15.4959 10.6044 15.5043 10.7392C15.5123 10.8526 15.5163 10.9656 15.5163 11.0785Z" fill="url(#paint10_linear_2313_27449)"/>
<path d="M12.9813 10.3179C12.8763 10.3388 12.7718 10.3612 12.6688 10.3846C11.2807 10.7045 10.0548 11.299 9.10654 12.0836C8.75926 11.916 8.40701 11.7368 8.05078 11.5448C9.27172 10.7657 10.8126 10.2572 12.5062 10.1443C12.5723 10.1398 12.639 10.1358 12.7057 10.1328C12.7131 10.1373 12.7206 10.1423 12.7276 10.1472C12.8141 10.2025 12.8987 10.2592 12.9813 10.3179Z" fill="url(#paint11_linear_2313_27449)"/>
<path d="M15.5136 11.0845C15.5136 11.2194 15.5082 11.3537 15.4972 11.487C15.4559 11.9821 15.338 12.4646 15.138 12.9189C15.048 12.697 14.941 12.4806 14.8181 12.2701C14.74 12.1368 14.6559 12.0059 14.5654 11.8781C14.543 11.8467 14.5206 11.8154 14.4977 11.7845C14.4425 11.7094 14.3853 11.6358 14.3261 11.5631C14.2788 11.5049 14.23 11.4472 14.1798 11.39C14.1246 11.3268 14.0679 11.2646 14.0091 11.2034C13.9549 11.1462 13.8992 11.09 13.842 11.0348C13.7967 10.9905 13.7504 10.9467 13.7037 10.9039C13.5997 10.8079 13.4917 10.7149 13.3803 10.6248C13.3619 10.6099 13.3435 10.595 13.3246 10.5801C13.2136 10.491 13.0987 10.4054 12.9803 10.3223C12.8977 10.2636 12.8131 10.2069 12.7266 10.1517C13.5485 9.90494 14.4619 9.84573 15.3947 9.98106C15.4201 10.1 15.4415 10.2194 15.4589 10.3383C15.4788 10.4746 15.4932 10.6104 15.5017 10.7452C15.5096 10.8587 15.5136 10.9716 15.5136 11.0845Z" fill="url(#paint12_linear_2313_27449)"/>
<path d="M14.0109 11.2058C13.8318 11.2998 13.6576 11.3988 13.49 11.5033C12.7487 11.964 12.1218 12.5232 11.6447 13.154C11.4094 13.0694 11.1696 12.9794 10.9258 12.8834C11.5168 12.1908 12.2949 11.5953 13.2074 11.1371C13.3691 11.056 13.5352 10.9789 13.7054 10.9062C13.7521 10.949 13.7984 10.9928 13.8437 11.0371C13.9009 11.0923 13.9566 11.1485 14.0109 11.2058Z" fill="url(#paint13_linear_2313_27449)"/>
<path d="M13.7043 10.9041C13.5341 10.9768 13.3679 11.0539 13.2063 11.135C12.2938 11.5932 11.5156 12.1887 10.9246 12.8813C10.6703 12.7818 10.4111 12.6758 10.1484 12.5629C10.8783 11.8181 11.8356 11.2051 12.9441 10.7807C13.0873 10.725 13.2331 10.6733 13.3809 10.625C13.4923 10.7151 13.6003 10.8081 13.7043 10.9041Z" fill="url(#paint14_linear_2313_27449)"/>
<path d="M13.3841 10.6228C13.2364 10.6711 13.0906 10.7228 12.9473 10.7785C11.8388 11.2029 10.8816 11.8159 10.1517 12.5607C9.81039 12.4139 9.46262 12.2562 9.10938 12.086C10.0577 11.3014 11.2836 10.7069 12.6717 10.387C12.7747 10.3636 12.8792 10.3412 12.9841 10.3203C13.1025 10.4034 13.2175 10.489 13.3284 10.578C13.3473 10.593 13.3657 10.6079 13.3841 10.6228Z" fill="url(#paint15_linear_2313_27449)"/>
<path d="M15.5172 11.0865C15.5172 11.2213 15.5117 11.3556 15.5008 11.489C15.4595 11.984 15.3416 12.4666 15.1416 12.9208C15.0515 12.6989 14.9445 12.4825 14.8217 12.2721C14.7435 12.1387 14.6595 12.0079 14.5689 11.88C14.5465 11.8487 14.5241 11.8173 14.5013 11.7865C14.446 11.7114 14.3888 11.6377 14.3296 11.5651C14.2824 11.5069 14.2336 11.4492 14.1833 11.392C14.1281 11.3288 14.0714 11.2666 14.0127 11.2054C13.9585 11.1482 13.9028 11.092 13.8455 11.0367C13.8003 10.9925 13.754 10.9487 13.7072 10.9059C13.6032 10.8099 13.4953 10.7168 13.3838 10.6268C13.3654 10.6119 13.347 10.5969 13.3281 10.582C13.9913 10.377 14.7157 10.2949 15.4625 10.3402C15.4824 10.4765 15.4968 10.6124 15.5052 10.7472C15.5132 10.8606 15.5172 10.9736 15.5172 11.0865Z" fill="url(#paint16_linear_2313_27449)"/>
<path d="M14.3276 11.5589C14.1535 11.6709 13.9858 11.7883 13.8256 11.9112C13.252 12.3485 12.7684 12.8525 12.3973 13.4052C12.152 13.3256 11.9012 13.2395 11.6445 13.1475C12.1216 12.5166 12.7485 11.9574 13.4898 11.4967C13.6575 11.3923 13.8316 11.2932 14.0107 11.1992C14.0694 11.2604 14.1261 11.3226 14.1813 11.3858C14.2316 11.443 14.2804 11.5007 14.3276 11.5589Z" fill="url(#paint17_linear_2313_27449)"/>
<path d="M15.5174 11.0893C15.5174 11.2241 15.5119 11.3585 15.501 11.4918C15.4597 11.9869 15.3418 12.4695 15.1418 12.9237C15.0517 12.7018 14.9447 12.4854 14.8219 12.2749C14.7437 12.1416 14.6597 12.0107 14.5691 11.8829C14.5467 11.8515 14.5243 11.8202 14.5014 11.7893C14.4462 11.7142 14.389 11.6406 14.3298 11.5679C14.2825 11.5097 14.2338 11.452 14.1835 11.3948C14.1283 11.3316 14.0716 11.2694 14.0129 11.2082C13.9586 11.151 13.9029 11.0948 13.8457 11.0396C14.3651 10.8654 14.9248 10.7684 15.5055 10.75C15.5134 10.8634 15.5174 10.9764 15.5174 11.0893Z" fill="url(#paint18_linear_2313_27449)"/>
<path d="M14.5643 11.8774C13.9065 12.371 13.3647 12.9496 12.9712 13.5899C12.801 13.5387 12.6269 13.4845 12.4498 13.4267L12.3945 13.4088C12.7657 12.8561 13.2493 12.3521 13.8229 11.9148C13.9831 11.7919 14.1508 11.6744 14.3249 11.5625C14.3841 11.6351 14.4414 11.7088 14.4966 11.7839C14.5195 11.8147 14.5419 11.8461 14.5643 11.8774Z" fill="url(#paint19_linear_2313_27449)"/>
<path d="M15.5175 11.082C15.5175 11.2169 15.512 11.3512 15.5011 11.4845C15.4598 11.9796 15.3418 12.4622 15.1418 12.9164C15.0518 12.6945 14.9448 12.4781 14.8219 12.2676C14.7438 12.1343 14.6597 12.0035 14.5692 11.8756C14.5468 11.8442 14.5244 11.8129 14.5015 11.7821C14.4463 11.7069 14.3891 11.6333 14.3299 11.5607C14.2826 11.5024 14.2338 11.4447 14.1836 11.3875C14.604 11.2333 15.0518 11.1313 15.5175 11.082Z" fill="url(#paint20_linear_2313_27449)"/>
<path d="M14.8185 12.2749C14.3175 12.7236 13.904 13.2291 13.5971 13.7759C13.3946 13.7202 13.1866 13.66 12.9727 13.5953C13.3662 12.955 13.908 12.3764 14.5657 11.8828C14.6563 12.0107 14.7404 12.1415 14.8185 12.2749Z" fill="url(#paint21_linear_2313_27449)"/>
<path d="M15.1389 12.9222C15.0464 13.1326 14.936 13.3376 14.8076 13.5346C14.3773 14.1958 13.7877 14.7053 13.0977 15.0565C13.2001 14.6103 13.3698 14.1809 13.5977 13.7744C13.9046 13.2277 14.3181 12.7222 14.819 12.2734C14.9419 12.4839 15.0489 12.7003 15.1389 12.9222Z" fill="#000143"/>
<path d="M15.4995 11.4844C15.4582 11.9794 15.3403 12.462 15.1403 12.9162C15.0502 12.6943 14.9433 12.4779 14.8204 12.2675C14.7423 12.1341 14.6582 12.0033 14.5677 11.8754C14.5453 11.8441 14.5229 11.8127 14.5 11.7819C14.8174 11.6515 15.1522 11.552 15.4995 11.4844Z" fill="url(#paint22_linear_2313_27449)"/>
<path d="M16.9222 8.33655C17.0755 8.33655 17.1998 8.21224 17.1998 8.0589C17.1998 7.90556 17.0755 7.78125 16.9222 7.78125C16.7688 7.78125 16.6445 7.90556 16.6445 8.0589C16.6445 8.21224 16.7688 8.33655 16.9222 8.33655Z" fill="#333333"/>
<path d="M16.9478 8.04012C16.9923 8.04012 17.0284 8.00403 17.0284 7.95951C17.0284 7.915 16.9923 7.87891 16.9478 7.87891C16.9033 7.87891 16.8672 7.915 16.8672 7.95951C16.8672 8.00403 16.9033 8.04012 16.9478 8.04012Z" fill="white"/>
<defs>
<linearGradient id="paint0_linear_2313_27449" x1="9.91406" y1="8.80211" x2="15.5449" y2="8.80211" gradientUnits="userSpaceOnUse">
<stop stop-color="#FBB03B"/>
<stop offset="1" stop-color="#000143"/>
</linearGradient>
<linearGradient id="paint1_linear_2313_27449" x1="6.13086" y1="10.3386" x2="11.5015" y2="10.3386" gradientUnits="userSpaceOnUse">
<stop stop-color="#FBB03B"/>
<stop offset="1" stop-color="#000143"/>
</linearGradient>
<linearGradient id="paint2_linear_2313_27449" x1="4.40234" y1="9.25693" x2="12.1581" y2="9.25693" gradientUnits="userSpaceOnUse">
<stop stop-color="#FBB03B"/>
<stop offset="1" stop-color="#000143"/>
</linearGradient>
<linearGradient id="paint3_linear_2313_27449" x1="10.1445" y1="9.14856" x2="15.5132" y2="9.14856" gradientUnits="userSpaceOnUse">
<stop stop-color="#FBB03B"/>
<stop offset="1" stop-color="#000143"/>
</linearGradient>
<linearGradient id="paint4_linear_2313_27449" x1="10.4668" y1="9.58632" x2="15.5151" y2="9.58632" gradientUnits="userSpaceOnUse">
<stop stop-color="#FBB03B"/>
<stop offset="1" stop-color="#000143"/>
</linearGradient>
<linearGradient id="paint5_linear_2313_27449" x1="10.8184" y1="9.99753" x2="15.5164" y2="9.99753" gradientUnits="userSpaceOnUse">
<stop stop-color="#FBB03B"/>
<stop offset="1" stop-color="#000143"/>
</linearGradient>
<linearGradient id="paint6_linear_2313_27449" x1="11.2285" y1="10.4325" x2="15.5167" y2="10.4325" gradientUnits="userSpaceOnUse">
<stop stop-color="#FBB03B"/>
<stop offset="1" stop-color="#000143"/>
</linearGradient>
<linearGradient id="paint7_linear_2313_27449" x1="11.6875" y1="10.8382" x2="15.5145" y2="10.8382" gradientUnits="userSpaceOnUse">
<stop stop-color="#FBB03B"/>
<stop offset="1" stop-color="#000143"/>
</linearGradient>
<linearGradient id="paint8_linear_2313_27449" x1="7.04883" y1="10.6817" x2="12.706" y2="10.6817" gradientUnits="userSpaceOnUse">
<stop stop-color="#FBB03B"/>
<stop offset="1" stop-color="#000143"/>
</linearGradient>
<linearGradient id="paint9_linear_2313_27449" x1="5.21875" y1="9.80604" x2="12.5078" y2="9.80604" gradientUnits="userSpaceOnUse">
<stop stop-color="#FBB03B"/>
<stop offset="1" stop-color="#000143"/>
</linearGradient>
<linearGradient id="paint10_linear_2313_27449" x1="12.1719" y1="11.171" x2="15.5163" y2="11.171" gradientUnits="userSpaceOnUse">
<stop stop-color="#FBB03B"/>
<stop offset="1" stop-color="#000143"/>
</linearGradient>
<linearGradient id="paint11_linear_2313_27449" x1="8.05078" y1="11.108" x2="12.9813" y2="11.108" gradientUnits="userSpaceOnUse">
<stop stop-color="#FBB03B"/>
<stop offset="1" stop-color="#000143"/>
</linearGradient>
<linearGradient id="paint12_linear_2313_27449" x1="12.7266" y1="11.4144" x2="15.5136" y2="11.4144" gradientUnits="userSpaceOnUse">
<stop stop-color="#FBB03B"/>
<stop offset="1" stop-color="#000143"/>
</linearGradient>
<linearGradient id="paint13_linear_2313_27449" x1="10.9258" y1="12.0301" x2="14.0109" y2="12.0301" gradientUnits="userSpaceOnUse">
<stop stop-color="#FBB03B"/>
<stop offset="1" stop-color="#000143"/>
</linearGradient>
<linearGradient id="paint14_linear_2313_27449" x1="10.1484" y1="11.7529" x2="13.7043" y2="11.7529" gradientUnits="userSpaceOnUse">
<stop stop-color="#FBB03B"/>
<stop offset="1" stop-color="#000143"/>
</linearGradient>
<linearGradient id="paint15_linear_2313_27449" x1="9.10938" y1="11.4403" x2="13.3841" y2="11.4403" gradientUnits="userSpaceOnUse">
<stop stop-color="#FBB03B"/>
<stop offset="1" stop-color="#000143"/>
</linearGradient>
<linearGradient id="paint16_linear_2313_27449" x1="13.3281" y1="11.6243" x2="15.5172" y2="11.6243" gradientUnits="userSpaceOnUse">
<stop stop-color="#FBB03B"/>
<stop offset="1" stop-color="#000143"/>
</linearGradient>
<linearGradient id="paint17_linear_2313_27449" x1="11.6445" y1="12.3022" x2="14.3276" y2="12.3022" gradientUnits="userSpaceOnUse">
<stop stop-color="#FBB03B"/>
<stop offset="1" stop-color="#000143"/>
</linearGradient>
<linearGradient id="paint18_linear_2313_27449" x1="13.8457" y1="11.8366" x2="15.5174" y2="11.8366" gradientUnits="userSpaceOnUse">
<stop stop-color="#FBB03B"/>
<stop offset="1" stop-color="#000143"/>
</linearGradient>
<linearGradient id="paint19_linear_2313_27449" x1="12.3945" y1="12.576" x2="14.5643" y2="12.576" gradientUnits="userSpaceOnUse">
<stop stop-color="#FBB03B"/>
<stop offset="1" stop-color="#000143"/>
</linearGradient>
<linearGradient id="paint20_linear_2313_27449" x1="14.1836" y1="11.999" x2="15.5175" y2="11.999" gradientUnits="userSpaceOnUse">
<stop stop-color="#FBB03B"/>
<stop offset="1" stop-color="#000143"/>
</linearGradient>
<linearGradient id="paint21_linear_2313_27449" x1="12.9727" y1="12.8291" x2="14.8185" y2="12.8291" gradientUnits="userSpaceOnUse">
<stop stop-color="#FBB03B"/>
<stop offset="1" stop-color="#000143"/>
</linearGradient>
<linearGradient id="paint22_linear_2313_27449" x1="14.5" y1="12.2003" x2="15.4995" y2="12.2003" gradientUnits="userSpaceOnUse">
<stop stop-color="#FBB03B"/>
<stop offset="1" stop-color="#000143"/>
</linearGradient>
</defs>
</svg>
