<svg width="577" height="132" viewBox="0 0 577 132" fill="none" xmlns="http://www.w3.org/2000/svg">
<circle cx="57.9922" cy="57.9922" r="57.9922" fill="#FEF6E8"/>
<path d="M78.5432 53.0692C78.5432 53.8511 78.5114 54.6301 78.448 55.4033C78.2085 58.274 77.5247 61.0727 76.3649 63.7068C75.8426 62.42 75.2223 61.165 74.5097 59.9446C74.0567 59.1713 73.5691 58.4125 73.044 57.671C72.9142 57.4893 72.7843 57.3075 72.6516 57.1286C72.3314 56.693 71.9996 56.266 71.6562 55.8447C71.3822 55.5071 71.0994 55.1725 70.808 54.8407C70.4877 54.4743 70.1588 54.1136 69.8184 53.7587C69.5039 53.4269 69.1808 53.1009 68.849 52.7806C68.5864 52.5239 68.3181 52.27 68.0469 52.0218C67.4439 51.465 66.8178 50.9255 66.1715 50.4033C66.0648 50.3167 65.958 50.2301 65.8484 50.1436C65.205 49.6271 64.5385 49.1309 63.8518 48.6491C63.3729 48.3086 62.8824 47.9797 62.3804 47.6594C62.34 47.6306 62.2967 47.6017 62.2534 47.5758C61.8755 47.3305 61.4946 47.0939 61.1051 46.8631C60.8253 46.6929 60.5425 46.5285 60.2569 46.364C59.8847 45.7956 59.5154 45.2157 59.149 44.6242C58.2084 43.1153 57.2707 41.5429 56.3503 39.9041C55.4415 38.2884 54.55 36.6121 53.6758 34.8723C52.865 33.2537 52.0687 31.5774 51.2984 29.8463C50.6002 28.2826 49.9222 26.6669 49.2672 25.0108C48.9729 24.2577 48.6815 23.4989 48.393 22.7286C48.0526 21.8053 47.7236 20.8907 47.4092 19.9819C46.861 18.3864 46.3561 16.8111 45.8887 15.2617C50.5079 16.4273 55.1241 18.4152 59.4837 21.2542C66.3389 25.7176 71.5351 31.6121 74.752 37.9797C74.7607 37.9941 74.7694 38.0085 74.7751 38.0229C75.0665 38.6 75.3435 39.1828 75.6003 39.7714C75.7532 40.1147 75.9003 40.458 76.0388 40.8071C76.2466 41.3063 76.437 41.8083 76.613 42.3132C76.89 43.0835 77.1381 43.8597 77.3516 44.6415C77.542 45.3138 77.7094 45.9918 77.8536 46.6698C78.0008 47.3594 78.1248 48.0518 78.2258 48.7414C78.3412 49.5319 78.4249 50.3196 78.4739 51.1015C78.5201 51.7593 78.5432 52.4142 78.5432 53.0692Z" fill="url(#paint0_linear_2313_27509)"/>
<path d="M45.9094 44.6172C49.0571 44.6172 52.1298 44.8509 55.0987 45.2981C45.4391 45.5664 36.5383 48.0477 29.2821 52.0812C27.5163 51.0252 25.7362 49.9115 23.9531 48.743C30.4823 46.1117 37.9636 44.6172 45.9094 44.6172Z" fill="url(#paint1_linear_2313_27509)"/>
<path d="M58.9205 45.328C58.8945 45.3193 58.8685 45.3078 58.8426 45.302C52.7058 43.0515 45.7987 41.7907 38.4963 41.7907C31.1939 41.7907 24.6762 42.9823 18.6693 45.1145C17.0363 43.9402 15.461 42.7573 13.9434 41.5714C19.4771 39.8259 25.562 38.8594 31.9498 38.8594C41.9931 38.8594 51.2892 41.2454 58.8685 45.302C58.8859 45.3106 58.9032 45.3193 58.9205 45.328Z" fill="url(#paint2_linear_2313_27509)"/>
<path opacity="0.17" d="M78.1684 73.2954C78.1684 81.6538 74.1695 89.3197 67.5221 95.2834C65.0639 91.0768 63.6992 86.4317 63.6992 81.5499C63.6992 79.5563 63.9271 77.603 64.3628 75.7017C68.3646 73.6647 71.7835 70.7103 74.2792 66.8759C75.0236 65.7333 75.6641 64.5447 76.2007 63.3242C77.4789 66.4806 78.1684 69.8274 78.1684 73.2954Z" fill="black"/>
<path opacity="0.17" d="M78.1684 73.2954C78.1684 81.6538 74.1695 89.3197 67.5221 95.2834C65.0639 91.0768 63.6992 86.4317 63.6992 81.5499C63.6992 79.5563 63.9271 77.603 64.3628 75.7017C68.3646 73.6647 71.7835 70.7103 74.2792 66.8759C75.0236 65.7333 75.6641 64.5447 76.2007 63.3242C77.4789 66.4806 78.1684 69.8274 78.1684 73.2954Z" fill="black"/>
<path opacity="0.17" d="M63.258 47.1447C63.2205 47.1274 63.1801 47.1072 63.1426 47.0898C63.2003 47.1043 63.2551 47.1216 63.3128 47.1418C63.2955 47.1389 63.2753 47.1389 63.258 47.1447Z" fill="black"/>
<path opacity="0.17" d="M78.1684 73.2954C78.1684 81.6538 74.1695 89.3197 67.5221 95.2834C65.0639 91.0768 63.6992 86.4317 63.6992 81.5499C63.6992 79.5563 63.9271 77.603 64.3628 75.7017C68.3646 73.6647 71.7835 70.7103 74.2792 66.8759C75.0236 65.7333 75.6641 64.5447 76.2007 63.3242C77.4789 66.4806 78.1684 69.8274 78.1684 73.2954Z" fill="black"/>
<path opacity="0.17" d="M63.258 47.1447C63.2205 47.1274 63.1801 47.1072 63.1426 47.0898C63.2003 47.1043 63.2551 47.1216 63.3128 47.1418C63.2955 47.1389 63.2753 47.1389 63.258 47.1447Z" fill="black"/>
<path opacity="0.17" d="M58.9217 45.3289C58.8957 45.3203 58.8697 45.3087 58.8438 45.3029C58.8524 45.3001 58.8611 45.3001 58.8697 45.3029C58.887 45.3116 58.9043 45.3203 58.9217 45.3289Z" fill="black"/>
<path opacity="0.17" d="M78.1684 73.2954C78.1684 81.6538 74.1695 89.3197 67.5221 95.2834C65.0639 91.0768 63.6992 86.4317 63.6992 81.5499C63.6992 79.5563 63.9271 77.603 64.3628 75.7017C68.3646 73.6647 71.7835 70.7103 74.2792 66.8759C75.0236 65.7333 75.6641 64.5447 76.2007 63.3242C77.4789 66.4806 78.1684 69.8274 78.1684 73.2954Z" fill="black"/>
<path opacity="0.17" d="M78.1684 73.2954C78.1684 81.6538 74.1695 89.3197 67.5221 95.2834C65.0639 91.0768 63.6992 86.4317 63.6992 81.5499C63.6992 79.5563 63.9271 77.603 64.3628 75.7017C68.3646 73.6647 71.7835 70.7103 74.2792 66.8759C75.0236 65.7333 75.6641 64.5447 76.2007 63.3242C77.4789 66.4806 78.1684 69.8274 78.1684 73.2954Z" fill="black"/>
<path opacity="0.17" d="M78.1684 73.2954C78.1684 81.6538 74.1695 89.3197 67.5221 95.2834C65.0639 91.0768 63.6992 86.4317 63.6992 81.5499C63.6992 79.5563 63.9271 77.603 64.3628 75.7017C68.3646 73.6647 71.7835 70.7103 74.2792 66.8759C75.0236 65.7333 75.6641 64.5447 76.2007 63.3242C77.4789 66.4806 78.1684 69.8274 78.1684 73.2954Z" fill="black"/>
<path opacity="0.17" d="M78.1684 73.2954C78.1684 81.6538 74.1695 89.3197 67.5221 95.2834C65.0639 91.0768 63.6992 86.4317 63.6992 81.5499C63.6992 79.5563 63.9271 77.603 64.3628 75.7017C68.3646 73.6647 71.7835 70.7103 74.2792 66.8759C75.0236 65.7333 75.6641 64.5447 76.2007 63.3242C77.4789 66.4806 78.1684 69.8274 78.1684 73.2954Z" fill="black"/>
<path opacity="0.17" d="M78.1684 73.2954C78.1684 81.6538 74.1695 89.3197 67.5221 95.2834C65.0639 91.0768 63.6992 86.4317 63.6992 81.5499C63.6992 79.5563 63.9271 77.603 64.3628 75.7017C68.3646 73.6647 71.7835 70.7103 74.2792 66.8759C75.0236 65.7333 75.6641 64.5447 76.2007 63.3242C77.4789 66.4806 78.1684 69.8274 78.1684 73.2954Z" fill="black"/>
<path opacity="0.17" d="M78.1684 73.2954C78.1684 81.6538 74.1695 89.3197 67.5221 95.2834C65.0639 91.0768 63.6992 86.4317 63.6992 81.5499C63.6992 79.5563 63.9271 77.603 64.3628 75.7017C68.3646 73.6647 71.7835 70.7103 74.2792 66.8759C75.0236 65.7333 75.6641 64.5447 76.2007 63.3242C77.4789 66.4806 78.1684 69.8274 78.1684 73.2954Z" fill="black"/>
<path opacity="0.17" d="M78.1684 73.2954C78.1684 81.6538 74.1695 89.3197 67.5221 95.2834C65.0639 91.0768 63.6992 86.4317 63.6992 81.5499C63.6992 79.5563 63.9271 77.603 64.3628 75.7017C68.3646 73.6647 71.7835 70.7103 74.2792 66.8759C75.0236 65.7333 75.6641 64.5447 76.2007 63.3242C77.4789 66.4806 78.1684 69.8274 78.1684 73.2954Z" fill="black"/>
<path opacity="0.17" d="M78.1684 73.2954C78.1684 81.6538 74.1695 89.3197 67.5221 95.2834C65.0639 91.0768 63.6992 86.4317 63.6992 81.5499C63.6992 79.5563 63.9271 77.603 64.3628 75.7017C68.3646 73.6647 71.7835 70.7103 74.2792 66.8759C75.0236 65.7333 75.6641 64.5447 76.2007 63.3242C77.4789 66.4806 78.1684 69.8274 78.1684 73.2954Z" fill="black"/>
<path opacity="0.17" d="M71.3105 100.477C70.4911 101.095 69.64 101.689 68.7571 102.255C67.9665 102.768 67.1529 103.259 66.3162 103.729C65.2343 104.338 64.1148 104.912 62.9636 105.446C61.85 105.965 60.7074 106.45 59.5332 106.897C59.3658 106.96 59.1956 107.024 59.0254 107.085C59.0167 107.087 59.0109 107.09 59.0023 107.093C57.8482 107.52 56.6711 107.913 55.4679 108.267C53.4021 108.873 51.2613 109.375 49.0628 109.756C46.2584 110.244 43.3588 110.544 40.3842 110.628C39.986 110.642 39.5879 110.651 39.1868 110.654H39.1551C38.9387 110.659 38.7223 110.659 38.5059 110.659C37.8481 110.659 37.1932 110.648 36.5411 110.625C31.1631 110.46 26.0218 109.609 21.2727 108.184C17.799 107.145 14.5358 105.798 11.541 104.191C13.2779 104.831 15.0754 105.391 16.9277 105.864C17.5624 106.029 18.2058 106.181 18.855 106.32C18.8578 106.32 18.8578 106.323 18.8607 106.323C22.4037 107.105 26.1256 107.575 29.9687 107.693C30.6294 107.716 31.293 107.728 31.9595 107.728C32.9837 107.728 33.9993 107.702 35.0062 107.65C38.0385 107.506 40.9901 107.142 43.8349 106.577C45.0842 106.332 46.3104 106.049 47.5135 105.726H47.5164C48.5493 105.452 49.5648 105.149 50.5602 104.823C52.0432 104.338 53.4829 103.795 54.8765 103.204C56.1344 102.667 57.3548 102.087 58.5349 101.467C59.7784 100.815 60.9758 100.12 62.1241 99.3811C63.0358 98.7983 63.9129 98.1895 64.7582 97.5519C65.7276 96.8248 66.6509 96.0689 67.5309 95.2812C68.5695 97.0643 69.8102 98.7665 71.221 100.374C71.2412 100.397 71.2614 100.42 71.2787 100.443C71.2903 100.454 71.2989 100.466 71.3105 100.477Z" fill="#000143"/>
<path opacity="0.17" d="M71.3106 100.477C70.4912 101.095 69.64 101.689 68.7572 102.255C67.9666 102.768 67.153 103.259 66.3163 103.729C65.2344 104.338 64.1149 104.912 62.9637 105.446C61.85 105.965 60.7075 106.45 59.5332 106.897C59.3659 106.96 59.1957 107.024 59.0254 107.085C59.0168 107.087 59.011 107.09 59.0024 107.093C57.8483 107.52 56.6711 107.913 55.468 108.267C53.4022 108.873 51.2614 109.375 49.0629 109.756C46.2585 110.244 43.3589 110.544 40.3843 110.628C39.9861 110.642 39.588 110.651 39.1869 110.654H39.1552C38.9388 110.659 38.7224 110.659 38.506 110.659C37.8482 110.659 37.1933 110.648 36.5412 110.625C31.1632 110.46 26.0218 109.609 21.2728 108.184C19.761 107.474 18.3126 106.701 16.9277 105.864C17.5625 106.029 18.2059 106.181 18.855 106.32C18.8579 106.32 18.8579 106.323 18.8608 106.323C22.4038 107.105 26.1257 107.575 29.9688 107.693C30.6295 107.716 31.2931 107.728 31.9595 107.728C32.9838 107.728 33.9994 107.702 35.0063 107.65C38.0386 107.506 40.9902 107.142 43.835 106.577C45.0842 106.332 46.3104 106.049 47.5136 105.726H47.5164C48.5493 105.452 49.5649 105.149 50.5603 104.823C52.0433 104.338 53.483 103.795 54.8766 103.204C56.1345 102.667 57.3549 102.087 58.535 101.467C59.7785 100.815 60.9758 100.12 62.1241 99.3811C63.0359 98.7983 63.9129 98.1895 64.7583 97.5519C65.7277 96.8248 66.651 96.0689 67.531 95.2812C68.5696 97.0643 69.8103 98.7665 71.2211 100.374C71.2413 100.397 71.2615 100.42 71.2788 100.443C71.2904 100.454 71.299 100.466 71.3106 100.477Z" fill="#000143"/>
<path opacity="0.17" d="M71.3105 100.477C70.4912 101.095 69.64 101.689 68.7572 102.255C67.9666 102.768 67.153 103.259 66.3163 103.729C65.2343 104.338 64.1149 104.912 62.9637 105.446C61.85 105.965 60.7075 106.45 59.5332 106.897C59.3659 106.96 59.1957 107.024 59.0254 107.085C59.0168 107.087 59.011 107.09 59.0024 107.093C57.8483 107.52 56.6711 107.913 55.468 108.267C53.4022 108.873 51.2614 109.375 49.0629 109.756C46.2585 110.244 43.3589 110.544 40.3843 110.628C39.9861 110.642 39.588 110.651 39.1869 110.654H39.1552C38.9388 110.659 38.7224 110.659 38.506 110.659C37.8482 110.659 37.1932 110.648 36.5412 110.625C36.4691 110.599 36.3941 110.57 36.3219 110.541H36.319C34.0946 109.719 31.9711 108.767 29.9688 107.693C30.6295 107.716 31.293 107.728 31.9595 107.728C32.9838 107.728 33.9994 107.702 35.0063 107.65C38.0386 107.506 40.9902 107.142 43.8349 106.577C45.0842 106.332 46.3104 106.049 47.5136 105.726H47.5164C48.5493 105.452 49.5649 105.149 50.5603 104.823C52.0433 104.338 53.483 103.795 54.8765 103.204C56.1345 102.667 57.3549 102.087 58.535 101.467C59.7785 100.815 60.9758 100.12 62.1241 99.3811C63.0358 98.7983 63.9129 98.1895 64.7583 97.5519C65.7277 96.8248 66.651 96.0689 67.531 95.2812C68.5696 97.0643 69.8103 98.7665 71.2211 100.374C71.2413 100.397 71.2615 100.42 71.2788 100.443C71.2903 100.454 71.299 100.466 71.3105 100.477Z" fill="#000143"/>
<path opacity="0.17" d="M71.3101 100.477C70.4907 101.095 69.6396 101.689 68.7567 102.255C67.9662 102.768 67.1526 103.259 66.3159 103.729C65.2339 104.338 64.1145 104.912 62.9633 105.446C61.8496 105.965 60.7071 106.45 59.5328 106.897C59.3655 106.96 59.1952 107.024 59.025 107.085C59.0164 107.087 59.0106 107.09 59.0019 107.093C57.8479 107.52 56.6707 107.913 55.4676 108.267C53.4018 108.873 51.261 109.375 49.0625 109.756C46.2581 110.244 43.3585 110.544 40.3838 110.628C38.494 109.733 36.6966 108.738 35.0059 107.65C38.0382 107.506 40.9897 107.142 43.8345 106.577C45.0838 106.332 46.31 106.049 47.5131 105.726H47.516C48.5489 105.452 49.5645 105.149 50.5599 104.823C52.0429 104.338 53.4826 103.795 54.8761 103.204C56.1341 102.667 57.3545 102.087 58.5345 101.467C59.778 100.815 60.9754 100.12 62.1237 99.3811C63.0354 98.7983 63.9125 98.1895 64.7579 97.5519C65.7273 96.8248 66.6505 96.0689 67.5305 95.2812C68.5692 97.0643 69.8098 98.7665 71.2207 100.374C71.2409 100.397 71.2611 100.42 71.2784 100.443C71.2899 100.454 71.2986 100.466 71.3101 100.477Z" fill="#000143"/>
<path opacity="0.17" d="M71.3105 100.478C70.4911 101.095 69.6399 101.689 68.757 102.255C67.9665 102.769 67.1528 103.259 66.3161 103.729C65.2341 104.338 64.1146 104.912 62.9634 105.446C61.8497 105.965 60.7071 106.45 59.5328 106.897C59.3654 106.961 59.1952 107.024 59.025 107.085C59.0163 107.088 59.0106 107.091 59.0019 107.094C57.8478 107.521 56.6706 107.913 55.4674 108.268C53.4016 108.874 51.2607 109.376 49.0621 109.757C47.2155 108.793 45.4671 107.731 43.834 106.577C45.0833 106.332 46.3096 106.049 47.5127 105.726H47.5156C48.5485 105.452 49.5642 105.149 50.5596 104.823C52.0426 104.338 53.4824 103.796 54.876 103.204C56.1339 102.668 57.3544 102.088 58.5345 101.467C59.778 100.815 60.9754 100.12 62.1238 99.3812C63.0355 98.7984 63.9127 98.1896 64.758 97.552C65.7275 96.8249 66.6508 96.0689 67.5308 95.2812C68.5695 97.0644 69.8102 98.7667 71.2211 100.374C71.2413 100.397 71.2615 100.42 71.2788 100.443C71.2903 100.455 71.299 100.466 71.3105 100.478Z" fill="#000143"/>
<path opacity="0.17" d="M71.3115 100.478C70.4921 101.095 69.6409 101.689 68.758 102.255C67.9674 102.769 67.1538 103.259 66.3171 103.729C65.2351 104.338 64.1156 104.912 62.9644 105.446C61.8506 105.965 60.7081 106.45 59.5338 106.897C59.3664 106.961 59.1962 107.024 59.026 107.085C59.0173 107.088 59.0115 107.091 59.0029 107.094C57.8488 107.521 56.6716 107.913 55.4684 108.268C54.1152 107.448 52.8255 106.574 51.605 105.642C51.2501 105.374 50.901 105.1 50.5605 104.823C52.0436 104.338 53.4833 103.796 54.8769 103.204C56.1349 102.668 57.3554 102.088 58.5355 101.467C59.779 100.815 60.9764 100.12 62.1248 99.3812C63.0365 98.7984 63.9136 98.1896 64.759 97.552C65.7285 96.8249 66.6518 96.0689 67.5318 95.2812C68.5705 97.0644 69.8111 98.7667 71.222 100.374C71.2422 100.397 71.2624 100.42 71.2797 100.443C71.2913 100.455 71.2999 100.466 71.3115 100.478Z" fill="#000143"/>
<path opacity="0.17" d="M71.309 100.477C70.4896 101.095 69.6385 101.689 68.7556 102.255C67.9651 102.768 67.1515 103.259 66.3148 103.729C65.2328 104.338 64.1134 104.912 62.9622 105.446C61.8485 105.965 60.706 106.45 59.5317 106.897C59.5288 106.894 59.523 106.891 59.5201 106.888C58.6517 106.294 57.815 105.677 57.01 105.036C56.2714 104.445 55.5588 103.833 54.875 103.204C56.1329 102.667 57.3534 102.087 58.5334 101.467C59.7769 100.815 60.9743 100.12 62.1226 99.3811C63.0343 98.7983 63.9114 98.1895 64.7568 97.5519C65.7262 96.8248 66.6494 96.0689 67.5294 95.2812C68.5681 97.0643 69.8087 98.7665 71.2196 100.374C71.2398 100.397 71.26 100.42 71.2773 100.443C71.2888 100.454 71.2975 100.466 71.309 100.477Z" fill="#000143"/>
<path opacity="0.17" d="M71.3112 100.478C70.4918 101.095 69.6406 101.689 68.7577 102.255C67.9671 102.769 67.1535 103.259 66.3168 103.729C65.2348 104.338 64.1153 104.912 62.9641 105.446C62.9439 105.432 62.9237 105.414 62.9035 105.397C62.3668 104.984 61.8475 104.557 61.3396 104.122C60.3471 103.273 59.4123 102.388 58.5352 101.467C59.7787 100.815 60.9761 100.12 62.1244 99.3812C63.0362 98.7984 63.9133 98.1896 64.7587 97.552C65.7282 96.8249 66.6514 96.0689 67.5315 95.2812C68.5702 97.0644 69.8108 98.7667 71.2217 100.374C71.2419 100.397 71.2621 100.42 71.2794 100.443C71.291 100.455 71.2996 100.466 71.3112 100.478Z" fill="#000143"/>
<path opacity="0.17" d="M71.3095 100.477C70.4901 101.095 69.6389 101.689 68.7561 102.255C67.9655 102.768 67.1519 103.259 66.3152 103.729C66.2835 103.7 66.2489 103.671 66.2171 103.643C65.943 103.397 65.6718 103.149 65.4064 102.898C64.2177 101.782 63.1213 100.607 62.123 99.3811C63.0348 98.7983 63.9119 98.1895 64.7572 97.5519C65.7266 96.8248 66.6499 96.0689 67.5299 95.2812C68.5685 97.0643 69.8092 98.7665 71.22 100.374C71.2402 100.397 71.2604 100.42 71.2777 100.443C71.2893 100.454 71.2979 100.466 71.3095 100.477Z" fill="#000143"/>
<path d="M78.1684 73.2954C78.1684 81.6538 74.1695 89.3197 67.5221 95.2834C65.0639 91.0768 63.6992 86.4317 63.6992 81.5499C63.6992 79.5563 63.9271 77.603 64.3628 75.7017C68.3646 73.6647 71.7835 70.7103 74.2792 66.8759C75.0236 65.7333 75.6641 64.5447 76.2007 63.3242C77.4789 66.4806 78.1684 69.8274 78.1684 73.2954Z" fill="#000143"/>
<path d="M92.8859 28.1851C92.7994 29.192 92.7677 30.0979 92.7648 30.8827C93.9246 31.5405 94.9142 32.4638 95.6557 33.5688C96.3049 34.5382 96.7608 35.6461 96.9714 36.8435C98.9506 42.308 100.027 48.2054 100.027 54.3508C100.027 74.5904 88.3476 92.0948 71.3682 100.479C71.3509 100.456 71.3307 100.433 71.3105 100.41C84.3227 90.8137 92.7648 75.3636 92.7648 57.94C92.7648 53.9671 92.3262 50.098 91.4924 46.3761C90.5749 46.7137 89.5795 46.8955 88.5466 46.8955C83.8236 46.8955 79.9949 43.0611 79.9949 38.3323C79.9949 34.8354 82.0838 31.8319 85.0815 30.5048C86.1404 30.0316 87.3147 29.769 88.5466 29.769C88.9852 28.1966 89.5853 26.3732 90.4162 24.3997C91.2356 22.4493 92.2714 20.346 93.6015 18.1821C97.208 12.3021 101.446 8.39848 104.441 6.05859C102.13 7.99167 97.9062 12.0598 95.1999 18.638C93.7284 22.2272 93.1168 25.5451 92.8888 28.1851H92.8859Z" fill="#000143"/>
<path d="M78.3782 52.6849C78.3782 53.4668 78.3464 54.2458 78.2829 55.0191C78.0435 57.8898 77.3597 60.6884 76.1998 63.3226C75.6776 62.0358 75.0573 60.7808 74.3447 59.5603C73.8917 58.7871 73.4041 58.0283 72.879 57.2868C72.7492 57.105 72.6193 56.9233 72.4866 56.7444C72.1664 56.3087 71.8346 55.8817 71.4912 55.4605C71.2171 55.1229 70.9344 54.7882 70.643 54.4564C70.3227 54.09 69.9938 53.7294 69.6534 53.3745C69.3389 53.0427 69.0157 52.7167 68.6839 52.3964C68.4214 52.1396 68.1531 51.8857 67.8819 51.6376C67.2789 51.0808 66.6528 50.5412 66.0065 50.019C65.8997 49.9325 65.793 49.8459 65.6833 49.7594C65.04 49.2429 64.3735 48.7467 63.6868 48.2648C63.2079 47.9244 62.7174 47.5955 62.2154 47.2752C62.175 47.2464 62.1317 47.2175 62.0884 47.1916C61.7104 46.9463 61.3296 46.7097 60.9401 46.4789C60.6602 46.3087 60.3775 46.1442 60.0919 45.9798C59.7197 45.4114 59.3504 44.8315 58.984 44.24C58.0434 42.7311 57.1057 41.1586 56.1853 39.5198C55.2765 37.9041 54.385 36.2279 53.5108 34.4881C52.7 32.8695 51.9037 31.1932 51.1334 29.4621C50.4352 27.8983 49.7571 26.2826 49.1022 24.6265C48.8079 23.8735 48.5165 23.1147 48.228 22.3444C47.8875 21.4211 47.5586 20.5065 47.2441 19.5977C52.3711 20.6883 57.5327 22.7944 62.3769 25.9479C67.3596 29.1909 71.4653 33.1926 74.5697 37.5839C74.5841 37.5983 74.5986 37.6185 74.6101 37.6387C74.9015 38.2157 75.1785 38.7986 75.4353 39.3871C75.5882 39.7305 75.7353 40.0738 75.8738 40.4229C76.0815 40.922 76.272 41.4241 76.448 41.929C76.7249 42.6993 76.9731 43.4754 77.1866 44.2573C77.377 44.9296 77.5443 45.6076 77.6886 46.2856C77.8357 46.9752 77.9598 47.6676 78.0608 48.3572C78.1762 49.1477 78.2599 49.9354 78.3089 50.7172C78.3551 51.3751 78.3782 52.03 78.3782 52.6849Z" fill="url(#paint3_linear_2313_27509)"/>
<path d="M78.3795 52.6873C78.3795 53.4692 78.3477 54.2482 78.2843 55.0214C78.0448 57.8922 77.361 60.6908 76.2012 63.325C75.6789 62.0382 75.0586 60.7831 74.346 59.5627C73.893 58.7895 73.4054 58.0307 72.8803 57.2892C72.7505 57.1074 72.6206 56.9256 72.4879 56.7468C72.1677 56.3111 71.8359 55.8841 71.4925 55.4629C71.2184 55.1253 70.9357 54.7906 70.6443 54.4588C70.324 54.0924 69.9951 53.7318 69.6547 53.3769C69.3402 53.0451 69.017 52.7191 68.6853 52.3988C68.4227 52.142 68.1544 51.8881 67.8832 51.64C67.2802 51.0832 66.6541 50.5436 66.0078 50.0214C65.9011 49.9348 65.7943 49.8483 65.6847 49.7617C65.0413 49.2453 64.3748 48.749 63.6881 48.2672C63.2092 47.9268 62.7187 47.5979 62.2167 47.2776C62.1763 47.2487 62.133 47.2199 62.0897 47.1939C61.7118 46.9487 61.3309 46.7121 60.9414 46.4813C60.6616 46.3111 60.3788 46.1466 60.0932 45.9821C59.721 45.4138 59.3517 44.8338 58.9853 44.2424C58.0447 42.7334 57.107 41.161 56.1866 39.5222C55.2778 37.9065 54.3863 36.2302 53.5121 34.4905C52.7013 32.8719 51.905 31.1956 51.1347 29.4645C50.4365 27.9007 49.7585 26.285 49.1035 24.6289C54.8277 25.5839 60.6529 27.8026 66.0742 31.3312C68.2236 32.7305 70.2086 34.2683 72.0176 35.9186C73.2352 37.0265 74.3777 38.1864 75.4366 39.3895C75.5895 39.7328 75.7366 40.0762 75.8751 40.4253C76.0829 40.9244 76.2733 41.4264 76.4493 41.9314C76.7263 42.7017 76.9744 43.4778 77.1879 44.2597C77.3783 44.9319 77.5457 45.61 77.6899 46.288C77.8371 46.9775 77.9611 47.67 78.0621 48.3595C78.1775 49.1501 78.2612 49.9377 78.3102 50.7196C78.3564 51.3774 78.3795 52.0324 78.3795 52.6873Z" fill="url(#paint4_linear_2313_27509)"/>
<path d="M78.3796 52.6877C78.3796 53.4696 78.3478 54.2486 78.2843 55.0218C78.0449 57.8926 77.3611 60.6912 76.2012 63.3254C75.679 62.0386 75.0587 60.7835 74.3461 59.5631C73.8931 58.7898 73.4055 58.031 72.8804 57.2896C72.7506 57.1078 72.6207 56.926 72.488 56.7471C72.1678 56.3115 71.836 55.8845 71.4926 55.4632C71.2185 55.1257 70.9358 54.791 70.6444 54.4592C70.3241 54.0928 69.9952 53.7321 69.6548 53.3772C69.3403 53.0454 69.0171 52.7194 68.6853 52.3992C68.4228 52.1424 68.1545 51.8885 67.8833 51.6404C67.2803 51.0835 66.6542 50.544 66.0079 50.0218C65.9011 49.9352 65.7944 49.8487 65.6847 49.7621C65.0414 49.2457 64.3749 48.7494 63.6882 48.2676C63.2093 47.9271 62.7188 47.5982 62.2168 47.278C62.1764 47.2491 62.1331 47.2203 62.0898 47.1943C61.7118 46.9491 61.331 46.7125 60.9415 46.4817C60.6616 46.3114 60.3789 46.147 60.0933 45.9825C59.7211 45.4141 59.3518 44.8342 58.9854 44.2428C58.0448 42.7338 57.1071 41.1614 56.1867 39.5226C55.2779 37.9069 54.3864 36.2306 53.5122 34.4908C52.7014 32.8722 51.9051 31.196 51.1348 29.4648C58.0275 29.7072 65.2981 31.8249 72.0177 35.919C72.4332 36.1671 72.84 36.4239 73.2468 36.6893C73.6969 36.9807 74.1383 37.2808 74.5711 37.5866C74.5798 37.5895 74.5855 37.5924 74.5884 37.5982C74.5971 37.6126 74.6057 37.627 74.6115 37.6415C74.9029 38.2185 75.1799 38.8013 75.4367 39.3899C75.5896 39.7332 75.7367 40.0765 75.8752 40.4257C76.0829 40.9248 76.2734 41.4268 76.4494 41.9317C76.7263 42.7021 76.9745 43.4782 77.188 44.2601C77.3784 44.9323 77.5457 45.6103 77.69 46.2883C77.8371 46.9779 77.9612 47.6704 78.0622 48.3599C78.1776 49.1504 78.2613 49.9381 78.3103 50.72C78.3565 51.3778 78.3796 52.0327 78.3796 52.6877Z" fill="url(#paint5_linear_2313_27509)"/>
<path d="M78.38 52.6848C78.38 53.4667 78.3482 54.2457 78.2847 55.019C78.0453 57.8898 77.3614 60.6886 76.2016 63.3228C75.6793 62.036 75.059 60.7809 74.3463 59.5604C73.8933 58.7872 73.4057 58.0283 72.8806 57.2868C72.7508 57.105 72.6209 56.9233 72.4882 56.7444C72.1679 56.3087 71.8361 55.8817 71.4928 55.4604C71.2187 55.1229 70.9359 54.7882 70.6445 54.4564C70.3242 54.0899 69.9953 53.7293 69.6549 53.3744C69.3404 53.0426 69.0172 52.7165 68.6854 52.3963C68.4228 52.1395 68.1545 51.8856 67.8833 51.6374C67.2803 51.0806 66.6542 50.541 66.0079 50.0188C65.9011 49.9322 65.7944 49.8457 65.6847 49.7591C65.0413 49.2426 64.3748 48.7464 63.6881 48.2645C63.2091 47.9241 62.7186 47.5952 62.2166 47.2749C62.1762 47.246 62.1329 47.2172 62.0897 47.1912C61.7117 46.946 61.3308 46.7094 60.9413 46.4786C60.6614 46.3083 60.3787 46.1439 60.093 45.9794C59.7208 45.411 59.3515 44.8311 58.9851 44.2396C58.0445 42.7306 57.1068 41.1581 56.1864 39.5193C55.2775 37.9035 54.386 36.2271 53.5117 34.4873C60.7942 34.2825 68.6248 36.2214 75.8755 40.4223C76.0833 40.9215 76.2737 41.4235 76.4497 41.9285C76.7267 42.6988 76.9748 43.475 77.1883 44.2569C77.3788 44.9292 77.5461 45.6072 77.6904 46.2852C77.8375 46.9748 77.9616 47.6673 78.0626 48.3569C78.178 49.1474 78.2617 49.9351 78.3107 50.717C78.3569 51.3749 78.38 52.0298 78.38 52.6848Z" fill="url(#paint6_linear_2313_27509)"/>
<path d="M78.3791 52.687C78.3791 53.4689 78.3474 54.2479 78.2839 55.0212C78.0444 57.892 77.3606 60.6907 76.2007 63.325C75.6785 62.0382 75.0582 60.7831 74.3455 59.5626C73.8925 58.7893 73.4049 58.0305 72.8798 57.289C72.7499 57.1072 72.6201 56.9255 72.4874 56.7466C72.1671 56.3109 71.8353 55.8839 71.492 55.4626C71.2179 55.125 70.9351 54.7903 70.6437 54.4585C70.3234 54.0921 69.9945 53.7314 69.654 53.3766C69.3395 53.0448 69.0164 52.7187 68.6846 52.3984C68.422 52.1417 68.1537 51.8878 67.8825 51.6396C67.2794 51.0828 66.6533 50.5432 66.007 50.021C65.9003 49.9344 65.7935 49.8479 65.6839 49.7613C65.0405 49.2448 64.374 48.7486 63.6873 48.2667C63.2083 47.9263 62.7178 47.5973 62.2158 47.2771C62.1754 47.2482 62.1321 47.2194 62.0888 47.1934C61.7109 46.9482 61.33 46.7116 60.9405 46.4807C60.6606 46.3105 60.3779 46.146 60.0922 45.9816C59.72 45.4132 59.3507 44.8332 58.9843 44.2418C58.0437 42.7328 57.106 41.1603 56.1855 39.5214C62.5707 38.5289 69.6136 39.305 76.4489 41.9306C76.7259 42.701 76.974 43.4772 77.1875 44.2591C77.3779 44.9313 77.5453 45.6094 77.6895 46.2874C77.8367 46.977 77.9608 47.6695 78.0617 48.3591C78.1772 49.1496 78.2608 49.9373 78.3099 50.7192C78.356 51.3771 78.3791 52.032 78.3791 52.687Z" fill="url(#paint7_linear_2313_27509)"/>
<path d="M62.0887 47.1924C61.7021 47.2098 61.3154 47.2328 60.9317 47.2588C51.1105 47.9137 42.1751 50.8624 35.0949 55.3806C33.1762 54.3448 31.2345 53.2456 29.2812 52.0799C36.5375 48.0465 45.4383 45.5652 55.0979 45.2969C56.8751 45.5652 58.6149 45.9056 60.3143 46.324C60.522 46.373 60.7326 46.425 60.9404 46.4798C61.3299 46.7106 61.7107 46.9472 62.0887 47.1924Z" fill="url(#paint8_linear_2313_27509)"/>
<path d="M60.9407 46.4814C60.733 46.4266 60.5224 46.3746 60.3147 46.3256C58.6153 45.9072 56.8755 45.5668 55.0982 45.2985C52.1294 44.8513 49.0567 44.6176 45.9089 44.6176C37.9631 44.6176 30.4819 46.1121 23.9527 48.7434C23.1448 48.2125 22.3341 47.6701 21.5234 47.1161C20.5539 46.4525 19.6018 45.7861 18.6699 45.1167C24.6769 42.9845 31.4022 41.793 38.4969 41.793C45.5916 41.793 52.7064 43.0538 58.8432 45.3042C58.8692 45.31 58.8952 45.3215 58.9211 45.3302C59.3164 45.5437 59.7059 45.7601 60.0925 45.9823C60.3781 46.1467 60.6609 46.3112 60.9407 46.4814Z" fill="url(#paint9_linear_2313_27509)"/>
<path opacity="0.17" d="M78.3792 52.6868C78.3792 53.4687 78.3475 54.2478 78.284 55.021C78.0445 57.8919 77.3607 60.6906 76.2008 63.3248C75.6786 62.038 75.0583 60.7829 74.3456 59.5624C73.8926 58.7892 73.405 58.0304 72.8799 57.2888C72.7501 57.1071 72.6202 56.9253 72.4875 56.7464C72.1672 56.3107 71.8354 55.8837 71.4921 55.4625C71.218 55.1249 70.9352 54.7902 70.6438 54.4584C70.3235 54.092 69.9946 53.7313 69.6541 53.3764C69.3396 53.0446 69.0165 52.7186 68.6847 52.3983C68.4221 52.1415 68.1538 51.8876 67.8826 51.6395C67.2796 51.0826 66.6535 50.5431 66.0071 50.0208C65.9004 49.9343 65.7936 49.8477 65.684 49.7611C65.0406 49.2447 64.3741 48.7484 63.6874 48.2666C63.2084 47.9261 62.7179 47.5972 62.2159 47.2769C62.1755 47.2481 62.1322 47.2192 62.0889 47.1932C61.711 46.948 61.3301 46.7114 60.9406 46.4806C60.6607 46.3104 60.378 46.1459 60.0923 45.9814C59.7201 45.413 59.3508 44.8331 58.9844 44.2416C64.5934 42.7586 70.8833 42.7413 77.1876 44.2589C77.378 44.9312 77.5454 45.6092 77.6897 46.2873C77.8368 46.9768 77.9609 47.6693 78.0619 48.3589C78.1773 49.1495 78.2609 49.9371 78.31 50.7191C78.3561 51.3769 78.3792 52.0319 78.3792 52.6868Z" fill="url(#paint10_linear_2313_27509)"/>
<path d="M63.6888 48.2647C63.08 48.3859 62.4741 48.5157 61.8769 48.6514C53.8269 50.5066 46.7176 53.9545 41.2183 58.5046C39.2043 57.5322 37.1616 56.4935 35.0957 55.3798C42.1762 50.8615 51.1119 47.9127 60.9334 47.2578C61.3171 47.2318 61.7038 47.2087 62.0904 47.1914C62.1337 47.2174 62.1769 47.2462 62.2173 47.2751C62.7194 47.5953 63.2099 47.9243 63.6888 48.2647Z" fill="url(#paint11_linear_2313_27509)"/>
<path d="M78.3796 52.6855C78.3796 53.4674 78.3479 54.2464 78.2844 55.0196C78.0449 57.8904 77.3611 60.689 76.2013 63.3232C75.6791 62.0364 75.0587 60.7813 74.3461 59.5609C73.8931 58.7877 73.4055 58.0289 72.8804 57.2874C72.7506 57.1056 72.6208 56.9238 72.4881 56.745C72.1678 56.3093 71.836 55.8823 71.4927 55.461C71.2186 55.1235 70.9358 54.7888 70.6444 54.457C70.3242 54.0906 69.9953 53.7299 69.6548 53.3751C69.3403 53.0433 69.0172 52.7172 68.6854 52.397C68.4228 52.1402 68.1545 51.8863 67.8833 51.6382C67.2803 51.0813 66.6542 50.5418 66.0079 50.0196C65.9012 49.933 65.7944 49.8465 65.6848 49.7599C65.0414 49.2435 64.3749 48.7472 63.6882 48.2654C63.2093 47.9249 62.7188 47.596 62.2168 47.2758C66.9831 45.8447 72.2803 45.5014 77.69 46.2862C77.8372 46.9757 77.9612 47.6682 78.0622 48.3577C78.1776 49.1483 78.2613 49.9359 78.3104 50.7178C78.3565 51.3756 78.3796 52.0306 78.3796 52.6855Z" fill="url(#paint12_linear_2313_27509)"/>
<path d="M69.6547 53.3775C68.616 53.9228 67.6062 54.497 66.6339 55.1028C62.335 57.7745 58.6997 61.0175 55.9328 64.6759C54.5681 64.1854 53.1774 63.6632 51.7637 63.1063C55.1913 59.0902 59.7037 55.6366 64.9951 52.9793C65.9328 52.5091 66.8965 52.0619 67.8832 51.6406C68.1544 51.8888 68.4227 52.1426 68.6853 52.3994C69.0171 52.7197 69.3402 53.0457 69.6547 53.3775Z" fill="url(#paint13_linear_2313_27509)"/>
<path d="M67.8828 51.6382C66.8961 52.0594 65.9324 52.5066 64.9947 52.9769C59.7031 55.6343 55.1905 59.088 51.7628 63.1043C50.2884 62.5272 48.7851 61.9127 47.2617 61.2577C51.4944 56.9384 57.0457 53.3838 63.4741 50.9226C64.3051 50.5995 65.1505 50.2994 66.0074 50.0195C66.6537 50.5418 67.2798 51.0813 67.8828 51.6382Z" fill="url(#paint14_linear_2313_27509)"/>
<path d="M66.0071 50.0199C65.1502 50.2997 64.3048 50.5998 63.4739 50.923C57.0454 53.3841 51.4942 56.9388 47.2615 61.258C45.2822 60.4069 43.2653 59.4923 41.2168 58.5055C46.7161 53.9554 53.8255 50.5075 61.8754 48.6523C62.4727 48.5166 63.0786 48.3868 63.6874 48.2656C64.3741 48.7475 65.0406 49.2437 65.684 49.7602C65.7936 49.8468 65.9004 49.9333 66.0071 50.0199Z" fill="url(#paint15_linear_2313_27509)"/>
<path d="M78.3784 52.687C78.3784 53.4689 78.3467 54.2479 78.2832 55.0211C78.0437 57.8919 77.3599 60.6905 76.2001 63.3247C75.6779 62.0379 75.0576 60.7828 74.3449 59.5624C73.8919 58.7891 73.4043 58.0303 72.8792 57.2888C72.7494 57.1071 72.6196 56.9253 72.4869 56.7464C72.1666 56.3108 71.8348 55.8838 71.4915 55.4625C71.2174 55.125 70.9346 54.7903 70.6432 54.4585C70.323 54.0921 69.9941 53.7314 69.6536 53.3765C69.3391 53.0447 69.016 52.7187 68.6842 52.3985C68.4216 52.1417 68.1533 51.8878 67.8821 51.6397C67.2791 51.0828 66.653 50.5433 66.0067 50.0211C65.9 49.9345 65.7932 49.848 65.6836 49.7614C69.5295 48.5727 73.7304 48.0967 78.061 48.3592C78.1764 49.1497 78.2601 49.9374 78.3092 50.7193C78.3553 51.3771 78.3784 52.032 78.3784 52.687Z" fill="url(#paint16_linear_2313_27509)"/>
<path d="M71.4914 55.461C70.4816 56.1102 69.5093 56.7911 68.5803 57.5037C65.2537 60.0398 62.4493 62.9625 60.2969 66.1679C58.8745 65.7063 57.4204 65.2071 55.9316 64.6734C58.6985 61.015 62.3339 57.772 66.6328 55.1003C67.6051 54.4944 68.6149 53.9203 69.6536 53.375C69.994 53.7299 70.3229 54.0905 70.6432 54.4569C70.9346 54.7887 71.2173 55.1234 71.4914 55.461Z" fill="url(#paint17_linear_2313_27509)"/>
<path d="M78.3801 52.6865C78.3801 53.4684 78.3484 54.2474 78.2849 55.0207C78.0454 57.8916 77.3616 60.6903 76.2017 63.3245C75.6795 62.0377 75.0591 60.7826 74.3465 59.5621C73.8935 58.7889 73.4059 58.0301 72.8807 57.2885C72.7509 57.1068 72.6211 56.925 72.4883 56.7461C72.1681 56.3104 71.8363 55.8834 71.4929 55.4622C71.2188 55.1246 70.9361 54.7899 70.6447 54.4581C70.3244 54.0916 69.9955 53.731 69.655 53.3761C69.3405 53.0443 69.0174 52.7183 68.6855 52.398C71.6978 51.3881 74.9437 50.8255 78.3108 50.7188C78.357 51.3766 78.3801 52.0316 78.3801 52.6865Z" fill="url(#paint18_linear_2313_27509)"/>
<path d="M72.8796 57.2873C69.0652 60.1495 65.9232 63.5051 63.6409 67.2185C62.6541 66.9213 61.6443 66.6068 60.6171 66.2721L60.2969 66.1682C62.4493 62.9627 65.2538 60.0399 68.5805 57.5037C69.5096 56.7911 70.4819 56.1101 71.4918 55.4609C71.8351 55.8822 72.1669 56.3092 72.4872 56.7449C72.6199 56.9238 72.7497 57.1055 72.8796 57.2873Z" fill="url(#paint19_linear_2313_27509)"/>
<path d="M78.38 52.6875C78.38 53.4694 78.3482 54.2484 78.2848 55.0217C78.0453 57.8925 77.3615 60.6913 76.2016 63.3255C75.6793 62.0387 75.059 60.7836 74.3463 59.5631C73.8934 58.7899 73.4057 58.031 72.8806 57.2895C72.7508 57.1077 72.6209 56.926 72.4882 56.7471C72.168 56.3114 71.8361 55.8844 71.4928 55.4631C71.2187 55.1256 70.9359 54.7909 70.6445 54.4591C73.0826 53.5646 75.6793 52.9731 78.38 52.6875Z" fill="url(#paint20_linear_2313_27509)"/>
<path d="M74.345 59.5627C71.4395 62.1652 69.0419 65.0966 67.2617 68.2676C66.0873 67.9444 64.8813 67.5953 63.6406 67.2202C65.9229 63.5068 69.065 60.1513 72.8793 57.2891C73.4044 58.0306 73.892 58.7894 74.345 59.5627Z" fill="url(#paint21_linear_2313_27509)"/>
<path d="M76.2012 63.3248C75.6645 64.5452 75.024 65.7339 74.2797 66.8764C71.784 70.7108 68.365 73.6653 64.3633 75.7022C64.9576 73.1142 65.9415 70.6243 67.2629 68.2671C69.0431 65.0963 71.4406 62.1649 74.346 59.5625C75.0587 60.7829 75.679 62.038 76.2012 63.3248Z" fill="#000143"/>
<path d="M78.2846 55.0195C78.0451 57.8903 77.3614 60.6889 76.2015 63.3231C75.6793 62.0363 75.059 60.7812 74.3463 59.5608C73.8934 58.7876 73.4058 58.0288 72.8807 57.2873C72.7508 57.1055 72.621 56.9238 72.4883 56.7449C74.329 55.989 76.2708 55.4119 78.2846 55.0195Z" fill="url(#paint22_linear_2313_27509)"/>
<path d="M86.5418 36.7359C87.4311 36.7359 88.1519 36.015 88.1519 35.1258C88.1519 34.2365 87.4311 33.5156 86.5418 33.5156C85.6525 33.5156 84.9316 34.2365 84.9316 35.1258C84.9316 36.015 85.6525 36.7359 86.5418 36.7359Z" fill="#333333"/>
<path d="M86.6901 35.0248C86.9483 35.0248 87.1576 34.8155 87.1576 34.5573C87.1576 34.2991 86.9483 34.0898 86.6901 34.0898C86.4319 34.0898 86.2227 34.2991 86.2227 34.5573C86.2227 34.8155 86.4319 35.0248 86.6901 35.0248Z" fill="white"/>
<mask id="path-53-outside-1_2313_27509" maskUnits="userSpaceOnUse" x="138.801" y="13.3984" width="438" height="119" fill="black">
<rect fill="white" x="138.801" y="13.3984" width="438" height="119"/>
<path d="M165.665 104.998V60.9824H146.401V104.998H140.801V15.3984H146.401V59.3024H165.665V15.3984H171.265V104.998H165.665Z"/>
<path d="M206.015 90.7744V37.6864H211.615V104.886H206.015V97.1584C204.111 101.862 199.967 105.11 194.367 105.11C185.855 105.11 180.255 98.8384 180.255 89.4304V37.5744H185.855V89.5424C185.855 97.8304 189.999 103.43 196.271 103.43C202.207 103.43 206.015 97.7184 206.015 90.7744Z"/>
<path d="M226.183 51.9104V104.998H220.583V37.7984H226.183V45.4144C228.087 40.5984 232.231 37.5744 237.495 37.5744C243.431 37.5744 247.575 41.3824 249.031 47.6544C250.487 41.7184 255.079 37.7984 261.015 37.7984C268.631 37.7984 273.223 44.0704 273.223 53.4784V105.334H267.623V53.3664C267.623 45.0784 264.711 39.4784 259.223 39.4784C253.847 39.4784 249.703 44.9664 249.703 52.1344C249.703 52.4704 249.703 52.9184 249.703 53.2544V105.11H244.103V53.1424C244.103 44.8544 241.191 39.2544 235.703 39.2544C230.327 39.2544 226.183 44.7424 226.183 51.9104Z"/>
<path d="M287.731 51.9104V104.998H282.131V37.7984H287.731V45.4144C289.635 40.5984 293.779 37.5744 299.043 37.5744C304.979 37.5744 309.123 41.3824 310.579 47.6544C312.035 41.7184 316.627 37.7984 322.563 37.7984C330.179 37.7984 334.771 44.0704 334.771 53.4784V105.334H329.171V53.3664C329.171 45.0784 326.259 39.4784 320.771 39.4784C315.395 39.4784 311.251 44.9664 311.251 52.1344C311.251 52.4704 311.251 52.9184 311.251 53.2544V105.11H305.651V53.1424C305.651 44.8544 302.739 39.2544 297.251 39.2544C291.875 39.2544 287.731 44.7424 287.731 51.9104Z"/>
<path d="M343.678 18.9824C343.678 16.9664 345.358 15.3984 347.262 15.3984C349.278 15.3984 350.958 16.9664 350.958 18.9824C350.958 20.9984 349.278 22.6784 347.262 22.6784C345.358 22.6784 343.678 20.9984 343.678 18.9824ZM344.462 104.998V37.7984H350.062V104.998H344.462Z"/>
<path d="M359.945 37.7984H365.545V45.5264C367.449 40.8224 371.593 37.5744 377.529 37.5744C385.817 37.5744 391.305 43.8464 391.305 53.2544V105.11H385.705V53.1424C385.705 44.8544 381.561 39.2544 375.513 39.2544C369.353 39.2544 365.545 44.9664 365.545 51.9104V104.998H359.945V37.7984Z"/>
<path d="M418.529 103.654C424.577 103.654 428.945 95.5904 429.729 83.6064V57.9584C428.945 46.6464 424.577 38.9184 418.529 38.9184C410.689 38.9184 405.873 52.1344 405.873 71.5104C405.873 90.8864 410.689 103.654 418.529 103.654ZM400.273 71.2864C400.273 50.6784 406.433 37.2384 416.849 37.2384C423.233 37.2384 427.713 42.0544 429.729 50.4544V37.7984H435.329V109.59C435.329 121.686 427.153 129.75 414.833 129.75C409.345 129.75 404.977 127.846 401.729 124.262L402.737 123.254C405.201 125.942 408.673 127.51 413.041 127.51C423.009 127.51 429.729 120.23 429.729 109.254V91.3344C427.713 100.294 423.233 105.222 416.849 105.222C406.433 105.222 400.273 91.8944 400.273 71.2864Z"/>
<path d="M461.121 103.878C468.961 103.878 473.777 90.6624 473.777 71.2864C473.777 51.9104 468.961 39.1424 461.121 39.1424C455.073 39.1424 450.705 47.2064 449.921 59.1904V84.8384C450.705 96.1504 455.073 103.878 461.121 103.878ZM444.321 104.998V15.3984H449.921V51.4624C451.937 42.5024 456.417 37.5744 462.801 37.5744C473.217 37.5744 479.377 50.9024 479.377 71.5104C479.377 92.1184 473.217 105.558 462.801 105.558C456.417 105.558 451.937 100.742 449.921 92.3424V104.998H444.321Z"/>
<path d="M488.368 18.9824C488.368 16.9664 490.048 15.3984 491.952 15.3984C493.968 15.3984 495.648 16.9664 495.648 18.9824C495.648 20.9984 493.968 22.6784 491.952 22.6784C490.048 22.6784 488.368 20.9984 488.368 18.9824ZM489.152 104.998V37.7984H494.752V104.998H489.152Z"/>
<path d="M504.635 37.7984H510.235V45.1904C512.027 40.4864 515.947 37.5744 520.763 37.5744C526.923 37.5744 531.963 42.1664 533.531 48.9984H527.819C525.579 42.3904 522.667 39.2544 518.859 39.2544C514.827 39.2544 510.235 44.9664 510.235 51.9104V104.998H504.635V37.7984Z"/>
<path d="M574.113 15.3984V104.998H568.513V92.3424C566.497 100.742 562.017 105.558 555.633 105.558C545.217 105.558 539.057 92.1184 539.057 71.5104C539.057 50.9024 545.217 37.5744 555.633 37.5744C562.017 37.5744 566.497 42.5024 568.513 51.4624V15.3984H574.113ZM557.313 103.878C563.361 103.878 567.729 96.1504 568.513 84.8384V59.1904C567.729 47.2064 563.361 39.1424 557.313 39.1424C549.473 39.1424 544.657 51.9104 544.657 71.2864C544.657 90.6624 549.473 103.878 557.313 103.878Z"/>
</mask>
<path d="M165.665 104.998V60.9824H146.401V104.998H140.801V15.3984H146.401V59.3024H165.665V15.3984H171.265V104.998H165.665Z" fill="#000143"/>
<path d="M206.015 90.7744V37.6864H211.615V104.886H206.015V97.1584C204.111 101.862 199.967 105.11 194.367 105.11C185.855 105.11 180.255 98.8384 180.255 89.4304V37.5744H185.855V89.5424C185.855 97.8304 189.999 103.43 196.271 103.43C202.207 103.43 206.015 97.7184 206.015 90.7744Z" fill="#000143"/>
<path d="M226.183 51.9104V104.998H220.583V37.7984H226.183V45.4144C228.087 40.5984 232.231 37.5744 237.495 37.5744C243.431 37.5744 247.575 41.3824 249.031 47.6544C250.487 41.7184 255.079 37.7984 261.015 37.7984C268.631 37.7984 273.223 44.0704 273.223 53.4784V105.334H267.623V53.3664C267.623 45.0784 264.711 39.4784 259.223 39.4784C253.847 39.4784 249.703 44.9664 249.703 52.1344C249.703 52.4704 249.703 52.9184 249.703 53.2544V105.11H244.103V53.1424C244.103 44.8544 241.191 39.2544 235.703 39.2544C230.327 39.2544 226.183 44.7424 226.183 51.9104Z" fill="#000143"/>
<path d="M287.731 51.9104V104.998H282.131V37.7984H287.731V45.4144C289.635 40.5984 293.779 37.5744 299.043 37.5744C304.979 37.5744 309.123 41.3824 310.579 47.6544C312.035 41.7184 316.627 37.7984 322.563 37.7984C330.179 37.7984 334.771 44.0704 334.771 53.4784V105.334H329.171V53.3664C329.171 45.0784 326.259 39.4784 320.771 39.4784C315.395 39.4784 311.251 44.9664 311.251 52.1344C311.251 52.4704 311.251 52.9184 311.251 53.2544V105.11H305.651V53.1424C305.651 44.8544 302.739 39.2544 297.251 39.2544C291.875 39.2544 287.731 44.7424 287.731 51.9104Z" fill="#000143"/>
<path d="M343.678 18.9824C343.678 16.9664 345.358 15.3984 347.262 15.3984C349.278 15.3984 350.958 16.9664 350.958 18.9824C350.958 20.9984 349.278 22.6784 347.262 22.6784C345.358 22.6784 343.678 20.9984 343.678 18.9824ZM344.462 104.998V37.7984H350.062V104.998H344.462Z" fill="#000143"/>
<path d="M359.945 37.7984H365.545V45.5264C367.449 40.8224 371.593 37.5744 377.529 37.5744C385.817 37.5744 391.305 43.8464 391.305 53.2544V105.11H385.705V53.1424C385.705 44.8544 381.561 39.2544 375.513 39.2544C369.353 39.2544 365.545 44.9664 365.545 51.9104V104.998H359.945V37.7984Z" fill="#000143"/>
<path d="M418.529 103.654C424.577 103.654 428.945 95.5904 429.729 83.6064V57.9584C428.945 46.6464 424.577 38.9184 418.529 38.9184C410.689 38.9184 405.873 52.1344 405.873 71.5104C405.873 90.8864 410.689 103.654 418.529 103.654ZM400.273 71.2864C400.273 50.6784 406.433 37.2384 416.849 37.2384C423.233 37.2384 427.713 42.0544 429.729 50.4544V37.7984H435.329V109.59C435.329 121.686 427.153 129.75 414.833 129.75C409.345 129.75 404.977 127.846 401.729 124.262L402.737 123.254C405.201 125.942 408.673 127.51 413.041 127.51C423.009 127.51 429.729 120.23 429.729 109.254V91.3344C427.713 100.294 423.233 105.222 416.849 105.222C406.433 105.222 400.273 91.8944 400.273 71.2864Z" fill="#000143"/>
<path d="M461.121 103.878C468.961 103.878 473.777 90.6624 473.777 71.2864C473.777 51.9104 468.961 39.1424 461.121 39.1424C455.073 39.1424 450.705 47.2064 449.921 59.1904V84.8384C450.705 96.1504 455.073 103.878 461.121 103.878ZM444.321 104.998V15.3984H449.921V51.4624C451.937 42.5024 456.417 37.5744 462.801 37.5744C473.217 37.5744 479.377 50.9024 479.377 71.5104C479.377 92.1184 473.217 105.558 462.801 105.558C456.417 105.558 451.937 100.742 449.921 92.3424V104.998H444.321Z" fill="#000143"/>
<path d="M488.368 18.9824C488.368 16.9664 490.048 15.3984 491.952 15.3984C493.968 15.3984 495.648 16.9664 495.648 18.9824C495.648 20.9984 493.968 22.6784 491.952 22.6784C490.048 22.6784 488.368 20.9984 488.368 18.9824ZM489.152 104.998V37.7984H494.752V104.998H489.152Z" fill="#000143"/>
<path d="M504.635 37.7984H510.235V45.1904C512.027 40.4864 515.947 37.5744 520.763 37.5744C526.923 37.5744 531.963 42.1664 533.531 48.9984H527.819C525.579 42.3904 522.667 39.2544 518.859 39.2544C514.827 39.2544 510.235 44.9664 510.235 51.9104V104.998H504.635V37.7984Z" fill="#000143"/>
<path d="M574.113 15.3984V104.998H568.513V92.3424C566.497 100.742 562.017 105.558 555.633 105.558C545.217 105.558 539.057 92.1184 539.057 71.5104C539.057 50.9024 545.217 37.5744 555.633 37.5744C562.017 37.5744 566.497 42.5024 568.513 51.4624V15.3984H574.113ZM557.313 103.878C563.361 103.878 567.729 96.1504 568.513 84.8384V59.1904C567.729 47.2064 563.361 39.1424 557.313 39.1424C549.473 39.1424 544.657 51.9104 544.657 71.2864C544.657 90.6624 549.473 103.878 557.313 103.878Z" fill="#000143"/>
<path d="M165.665 104.998V60.9824H146.401V104.998H140.801V15.3984H146.401V59.3024H165.665V15.3984H171.265V104.998H165.665Z" stroke="#000143" stroke-width="4" mask="url(#path-53-outside-1_2313_27509)"/>
<path d="M206.015 90.7744V37.6864H211.615V104.886H206.015V97.1584C204.111 101.862 199.967 105.11 194.367 105.11C185.855 105.11 180.255 98.8384 180.255 89.4304V37.5744H185.855V89.5424C185.855 97.8304 189.999 103.43 196.271 103.43C202.207 103.43 206.015 97.7184 206.015 90.7744Z" stroke="#000143" stroke-width="4" mask="url(#path-53-outside-1_2313_27509)"/>
<path d="M226.183 51.9104V104.998H220.583V37.7984H226.183V45.4144C228.087 40.5984 232.231 37.5744 237.495 37.5744C243.431 37.5744 247.575 41.3824 249.031 47.6544C250.487 41.7184 255.079 37.7984 261.015 37.7984C268.631 37.7984 273.223 44.0704 273.223 53.4784V105.334H267.623V53.3664C267.623 45.0784 264.711 39.4784 259.223 39.4784C253.847 39.4784 249.703 44.9664 249.703 52.1344C249.703 52.4704 249.703 52.9184 249.703 53.2544V105.11H244.103V53.1424C244.103 44.8544 241.191 39.2544 235.703 39.2544C230.327 39.2544 226.183 44.7424 226.183 51.9104Z" stroke="#000143" stroke-width="4" mask="url(#path-53-outside-1_2313_27509)"/>
<path d="M287.731 51.9104V104.998H282.131V37.7984H287.731V45.4144C289.635 40.5984 293.779 37.5744 299.043 37.5744C304.979 37.5744 309.123 41.3824 310.579 47.6544C312.035 41.7184 316.627 37.7984 322.563 37.7984C330.179 37.7984 334.771 44.0704 334.771 53.4784V105.334H329.171V53.3664C329.171 45.0784 326.259 39.4784 320.771 39.4784C315.395 39.4784 311.251 44.9664 311.251 52.1344C311.251 52.4704 311.251 52.9184 311.251 53.2544V105.11H305.651V53.1424C305.651 44.8544 302.739 39.2544 297.251 39.2544C291.875 39.2544 287.731 44.7424 287.731 51.9104Z" stroke="#000143" stroke-width="4" mask="url(#path-53-outside-1_2313_27509)"/>
<path d="M343.678 18.9824C343.678 16.9664 345.358 15.3984 347.262 15.3984C349.278 15.3984 350.958 16.9664 350.958 18.9824C350.958 20.9984 349.278 22.6784 347.262 22.6784C345.358 22.6784 343.678 20.9984 343.678 18.9824ZM344.462 104.998V37.7984H350.062V104.998H344.462Z" stroke="#000143" stroke-width="4" mask="url(#path-53-outside-1_2313_27509)"/>
<path d="M359.945 37.7984H365.545V45.5264C367.449 40.8224 371.593 37.5744 377.529 37.5744C385.817 37.5744 391.305 43.8464 391.305 53.2544V105.11H385.705V53.1424C385.705 44.8544 381.561 39.2544 375.513 39.2544C369.353 39.2544 365.545 44.9664 365.545 51.9104V104.998H359.945V37.7984Z" stroke="#000143" stroke-width="4" mask="url(#path-53-outside-1_2313_27509)"/>
<path d="M418.529 103.654C424.577 103.654 428.945 95.5904 429.729 83.6064V57.9584C428.945 46.6464 424.577 38.9184 418.529 38.9184C410.689 38.9184 405.873 52.1344 405.873 71.5104C405.873 90.8864 410.689 103.654 418.529 103.654ZM400.273 71.2864C400.273 50.6784 406.433 37.2384 416.849 37.2384C423.233 37.2384 427.713 42.0544 429.729 50.4544V37.7984H435.329V109.59C435.329 121.686 427.153 129.75 414.833 129.75C409.345 129.75 404.977 127.846 401.729 124.262L402.737 123.254C405.201 125.942 408.673 127.51 413.041 127.51C423.009 127.51 429.729 120.23 429.729 109.254V91.3344C427.713 100.294 423.233 105.222 416.849 105.222C406.433 105.222 400.273 91.8944 400.273 71.2864Z" stroke="#000143" stroke-width="4" mask="url(#path-53-outside-1_2313_27509)"/>
<path d="M461.121 103.878C468.961 103.878 473.777 90.6624 473.777 71.2864C473.777 51.9104 468.961 39.1424 461.121 39.1424C455.073 39.1424 450.705 47.2064 449.921 59.1904V84.8384C450.705 96.1504 455.073 103.878 461.121 103.878ZM444.321 104.998V15.3984H449.921V51.4624C451.937 42.5024 456.417 37.5744 462.801 37.5744C473.217 37.5744 479.377 50.9024 479.377 71.5104C479.377 92.1184 473.217 105.558 462.801 105.558C456.417 105.558 451.937 100.742 449.921 92.3424V104.998H444.321Z" stroke="#000143" stroke-width="4" mask="url(#path-53-outside-1_2313_27509)"/>
<path d="M488.368 18.9824C488.368 16.9664 490.048 15.3984 491.952 15.3984C493.968 15.3984 495.648 16.9664 495.648 18.9824C495.648 20.9984 493.968 22.6784 491.952 22.6784C490.048 22.6784 488.368 20.9984 488.368 18.9824ZM489.152 104.998V37.7984H494.752V104.998H489.152Z" stroke="#000143" stroke-width="4" mask="url(#path-53-outside-1_2313_27509)"/>
<path d="M504.635 37.7984H510.235V45.1904C512.027 40.4864 515.947 37.5744 520.763 37.5744C526.923 37.5744 531.963 42.1664 533.531 48.9984H527.819C525.579 42.3904 522.667 39.2544 518.859 39.2544C514.827 39.2544 510.235 44.9664 510.235 51.9104V104.998H504.635V37.7984Z" stroke="#000143" stroke-width="4" mask="url(#path-53-outside-1_2313_27509)"/>
<path d="M574.113 15.3984V104.998H568.513V92.3424C566.497 100.742 562.017 105.558 555.633 105.558C545.217 105.558 539.057 92.1184 539.057 71.5104C539.057 50.9024 545.217 37.5744 555.633 37.5744C562.017 37.5744 566.497 42.5024 568.513 51.4624V15.3984H574.113ZM557.313 103.878C563.361 103.878 567.729 96.1504 568.513 84.8384V59.1904C567.729 47.2064 563.361 39.1424 557.313 39.1424C549.473 39.1424 544.657 51.9104 544.657 71.2864C544.657 90.6624 549.473 103.878 557.313 103.878Z" stroke="#000143" stroke-width="4" mask="url(#path-53-outside-1_2313_27509)"/>
<defs>
<linearGradient id="paint0_linear_2313_27509" x1="45.8887" y1="39.4857" x2="78.5432" y2="39.4857" gradientUnits="userSpaceOnUse">
<stop stop-color="#FBB03B"/>
<stop offset="1" stop-color="#000143"/>
</linearGradient>
<linearGradient id="paint1_linear_2313_27509" x1="23.9531" y1="48.3477" x2="55.0987" y2="48.3477" gradientUnits="userSpaceOnUse">
<stop stop-color="#FBB03B"/>
<stop offset="1" stop-color="#000143"/>
</linearGradient>
<linearGradient id="paint2_linear_2313_27509" x1="13.9434" y1="42.0937" x2="58.9205" y2="42.0937" gradientUnits="userSpaceOnUse">
<stop stop-color="#FBB03B"/>
<stop offset="1" stop-color="#000143"/>
</linearGradient>
<linearGradient id="paint3_linear_2313_27509" x1="47.2441" y1="41.4587" x2="78.3782" y2="41.4587" gradientUnits="userSpaceOnUse">
<stop stop-color="#FBB03B"/>
<stop offset="1" stop-color="#000143"/>
</linearGradient>
<linearGradient id="paint4_linear_2313_27509" x1="49.1035" y1="43.9769" x2="78.3795" y2="43.9769" gradientUnits="userSpaceOnUse">
<stop stop-color="#FBB03B"/>
<stop offset="1" stop-color="#000143"/>
</linearGradient>
<linearGradient id="paint5_linear_2313_27509" x1="51.1348" y1="46.3951" x2="78.3796" y2="46.3951" gradientUnits="userSpaceOnUse">
<stop stop-color="#FBB03B"/>
<stop offset="1" stop-color="#000143"/>
</linearGradient>
<linearGradient id="paint6_linear_2313_27509" x1="53.5117" y1="48.8964" x2="78.38" y2="48.8964" gradientUnits="userSpaceOnUse">
<stop stop-color="#FBB03B"/>
<stop offset="1" stop-color="#000143"/>
</linearGradient>
<linearGradient id="paint7_linear_2313_27509" x1="56.1855" y1="51.2155" x2="78.3791" y2="51.2155" gradientUnits="userSpaceOnUse">
<stop stop-color="#FBB03B"/>
<stop offset="1" stop-color="#000143"/>
</linearGradient>
<linearGradient id="paint8_linear_2313_27509" x1="29.2812" y1="50.3373" x2="62.0887" y2="50.3373" gradientUnits="userSpaceOnUse">
<stop stop-color="#FBB03B"/>
<stop offset="1" stop-color="#000143"/>
</linearGradient>
<linearGradient id="paint9_linear_2313_27509" x1="18.6699" y1="45.2667" x2="60.9407" y2="45.2667" gradientUnits="userSpaceOnUse">
<stop stop-color="#FBB03B"/>
<stop offset="1" stop-color="#000143"/>
</linearGradient>
<linearGradient id="paint10_linear_2313_27509" x1="58.9844" y1="53.2235" x2="78.3792" y2="53.2235" gradientUnits="userSpaceOnUse">
<stop stop-color="#FBB03B"/>
<stop offset="1" stop-color="#000143"/>
</linearGradient>
<linearGradient id="paint11_linear_2313_27509" x1="35.0957" y1="52.8466" x2="63.6888" y2="52.8466" gradientUnits="userSpaceOnUse">
<stop stop-color="#FBB03B"/>
<stop offset="1" stop-color="#000143"/>
</linearGradient>
<linearGradient id="paint12_linear_2313_27509" x1="62.2168" y1="54.5984" x2="78.3796" y2="54.5984" gradientUnits="userSpaceOnUse">
<stop stop-color="#FBB03B"/>
<stop offset="1" stop-color="#000143"/>
</linearGradient>
<linearGradient id="paint13_linear_2313_27509" x1="51.7637" y1="58.1583" x2="69.6547" y2="58.1583" gradientUnits="userSpaceOnUse">
<stop stop-color="#FBB03B"/>
<stop offset="1" stop-color="#000143"/>
</linearGradient>
<linearGradient id="paint14_linear_2313_27509" x1="47.2617" y1="56.5605" x2="67.8828" y2="56.5605" gradientUnits="userSpaceOnUse">
<stop stop-color="#FBB03B"/>
<stop offset="1" stop-color="#000143"/>
</linearGradient>
<linearGradient id="paint15_linear_2313_27509" x1="41.2168" y1="54.7604" x2="66.0071" y2="54.7604" gradientUnits="userSpaceOnUse">
<stop stop-color="#FBB03B"/>
<stop offset="1" stop-color="#000143"/>
</linearGradient>
<linearGradient id="paint16_linear_2313_27509" x1="65.6836" y1="55.8059" x2="78.3784" y2="55.8059" gradientUnits="userSpaceOnUse">
<stop stop-color="#FBB03B"/>
<stop offset="1" stop-color="#000143"/>
</linearGradient>
<linearGradient id="paint17_linear_2313_27509" x1="55.9316" y1="59.7715" x2="71.4914" y2="59.7715" gradientUnits="userSpaceOnUse">
<stop stop-color="#FBB03B"/>
<stop offset="1" stop-color="#000143"/>
</linearGradient>
<linearGradient id="paint18_linear_2313_27509" x1="68.6855" y1="57.0202" x2="78.3801" y2="57.0202" gradientUnits="userSpaceOnUse">
<stop stop-color="#FBB03B"/>
<stop offset="1" stop-color="#000143"/>
</linearGradient>
<linearGradient id="paint19_linear_2313_27509" x1="60.2969" y1="61.3383" x2="72.8796" y2="61.3383" gradientUnits="userSpaceOnUse">
<stop stop-color="#FBB03B"/>
<stop offset="1" stop-color="#000143"/>
</linearGradient>
<linearGradient id="paint20_linear_2313_27509" x1="70.6445" y1="58.0051" x2="78.38" y2="58.0051" gradientUnits="userSpaceOnUse">
<stop stop-color="#FBB03B"/>
<stop offset="1" stop-color="#000143"/>
</linearGradient>
<linearGradient id="paint21_linear_2313_27509" x1="63.6406" y1="62.7769" x2="74.345" y2="62.7769" gradientUnits="userSpaceOnUse">
<stop stop-color="#FBB03B"/>
<stop offset="1" stop-color="#000143"/>
</linearGradient>
<linearGradient id="paint22_linear_2313_27509" x1="72.4883" y1="59.1713" x2="78.2846" y2="59.1713" gradientUnits="userSpaceOnUse">
<stop stop-color="#FBB03B"/>
<stop offset="1" stop-color="#000143"/>
</linearGradient>
</defs>
</svg>
